<?xml version="1.0" encoding="UTF-8"?>
<svg id="Layer_3" xmlns="http://www.w3.org/2000/svg" version="1.1" viewBox="0 0 250.8 287">
  <!-- Generator: Adobe Illustrator 29.3.1, SVG Export Plug-In . SVG Version: 2.1.0 Build 151)  -->
  <defs>
    <style>
      .st0 {
        fill: #4f1f78;
      }

      .st1 {
        fill: #191919;
      }
    </style>
  </defs>
  <path class="st1" d="M244.5,51.2l-106.9,45.9v38.6l106.9,45.9v-42.1l-62.4-23,62.4-22.9v-42.4h0Z"/>
  <g>
    <path class="st1" d="M137.7,98.8c0-.8-.2-1.6-.6-2.3-4.2-8.2-31.9-59.6-75.3-82.6,0,0-28.9-14.4-52.6-4.1-.8.3-1.5.9-2,1.6-1.9,2.6-5.9,9.6-.8,18,0,0,10.1,18.3,13.5,47.5,0,0,.4,2.9,3,5.3.9.8,1.5,1.9,1.6,3.2.4,7.4,2.8,32.9,16.5,34.8l25.6,2.5s2.1,1-.2,2.1c-2.2,1.1-18.4,16.3-23,30-.2.4-.2.9-.2,1.4,0,.9-.5,2.9-3.3,6.1-.4.5-.8,1.1-1,1.7-.7,2.1-1.6,6.8,3.8,11,1.9,1.5,2.6,4.1,1.5,6.2-.5.9-1.1,1.9-2,3-.4.6-.8,1.2-1,1.9-.6,2.2-1.5,7,1.8,5.9,4.3-1.3,14.3,2.6,9.5,15,0,.2-.2.5-.4.7-.8,1.5-3.7,7.4,4,7.9,7,.5,8.4,12.8,8.7,17.8,0,1.2-.3,2.3-1,3.2-1,1.4-2.5,4.3-3.1,9.2-.9,7.1-10.4,24.1-12.1,26.9-.2.3-.3.6-.4,1-.6,1.8-1.9,7.3,1.9,8.2s6.4-5,7.1-6.7c0-.3.2-.6.2-.9.4-2.4,2.9-15.7,7.8-26.9.2-.5.6-1,.9-1.4,1.8-1.9,7-6.2,15.1-2.1.3.1.6.3.8.5,1.1.8,4.7,3.1,7.9.1s8.2,2.6,10.1,4.8c.6.7,1.4,1.3,2.3,1.5,2.1.6,5.6.7,6.7-4.5.2-.8,0-1.7,0-2.6-.9-3-3-11.2,2.9-11.2s6.6.2,6.9-5.9c0-.3,0-.6,0-.9l18.6-88.9c0-.3.1-.7.1-1v-37.1h.2Z"/>
    <path class="st0" d="M137.7,96.8s-20.1-46.3-45.2-43.3c-1.7.2-11.7,2.7,0,12.3,0,0-8.8-5.6-11.3-3.6s-1.6,5.5-1.6,5.5c0,0-13.1-2.8-11.3-1.2,1.3,1.1,12.6,6.6,12.6,6.6,0,0-15.5,1.8-14.6,5.8.6,2.7,13.9,6.2,26.3,5.9,0,0-3.2,5.1-30.8,2.3,0,0-1.9,5.6,20.7,11.5,0,0-23.2,1.7-23.8,5.7-.6,3.7,18.9,8,18.9,8,0,0-16.2,4.3-12.1,5.1,7.1,1.4,11,1.6,11.8,3.9,3.4,9.4,40.6,0,40.6,0,0,0,5.2.3,1.6,2.4s.4,8.1-12.7,9.8-22.7,4.5-18.1,6.4c4.6,1.9-10.7,2-6.2,5.2s-14.3,10.2-14.3,10.2c0,0-8.9,6.6-4.8,7.1,4.2.4-17.2,9.4-11.1,11.6,6.1,2.2,5.8,3.2,8.5,3s-2.2,2,2.2,2.3c4.4.3-.4,5.3,2.4,4.9,2.8-.4-14.4,12.3-6.4,12.6,8.1.3,21.7,0,21.7,0,0,0-1.9,15.6,1.7,15.3s9.1-3.6,10.7-2.4.3,14.3,4.5,13,11.7-8.9,11.7-10,4.2,2.3,6.4.9,4.6-2,10.7-28.9,11.3-49.4,11.3-49.4v-38.6h0Z"/>
  </g>
</svg>