<?xml version="1.0" encoding="UTF-8"?>
<svg id="Layer_4" xmlns="http://www.w3.org/2000/svg" version="1.1" viewBox="0 0 498.2 690.8">
  <!-- Generator: Adobe Illustrator 29.3.1, SVG Export Plug-In . SVG Version: 2.1.0 Build 151)  -->
  <defs>
    <style>
      .st0 {
        fill: #4f1f78;
      }

      .st1 {
        fill: #191919;
      }
    </style>
  </defs>
  <path class="st1" d="M279,303.7c0-1.6-.4-3.2-1.1-4.6-8.4-16.4-64.3-120.1-151.7-166.4,0,0-58.2-29.1-105.9-8.3-1.6.7-2.9,1.8-4,3.2-3.9,5.2-11.9,19.4-1.6,36.3,0,0,20.4,36.8,27.2,95.6,0,0,.8,5.8,6.1,10.7,1.8,1.7,3,3.9,3.2,6.4.8,15,5.7,66.2,33.2,70.1l51.5,5.1s4.2,2-.4,4.3c-4.5,2.3-37.1,32.9-46.3,60.5-.3.9-.4,1.8-.4,2.8,0,1.8-1.1,5.8-6.7,12.3-.9,1-1.6,2.1-2,3.4-1.5,4.2-3.1,13.8,7.6,22.1,3.9,3,5.3,8.2,3,12.6-.9,1.7-2.2,3.7-4.1,6-.9,1.1-1.6,2.4-2,3.8-1.2,4.5-3.1,14.1,3.7,12,8.7-2.7,28.7,5.2,19.1,30.3-.2.5-.5,1-.7,1.5-1.7,3-7.4,14.8,8.1,15.8,14.1.9,16.9,25.8,17.5,35.8.1,2.3-.6,4.6-1.9,6.5-2,2.9-5,8.6-6.2,18.4-1.8,14.4-21,48.5-24.3,54.3-.3.6-.6,1.2-.8,1.9-1.1,3.5-3.9,14.6,3.8,16.6,7.9,2,13-10,14.3-13.6.2-.6.4-1.1.5-1.8.9-4.9,5.9-31.7,15.7-54.3.5-1.1,1.1-2,1.9-2.9,3.5-3.7,14.2-12.5,30.4-4.3.6.3,1.1.7,1.6,1.1,2.2,1.7,9.4,6.3,15.8.2,6.4-6.1,16.6,5.2,20.4,9.7,1.2,1.5,2.8,2.6,4.7,3.1,4.2,1.2,11.2,1.5,13.6-9,.4-1.7.3-3.5-.2-5.2-1.9-6-6.1-22.6,6-22.5,14.3.2,13.4.3,13.8-11.8,0-.6,0-1.2.2-1.7l37.4-179.1c.1-.7.2-1.4.2-2.1v-74.7h-.2Z"/>
  <path class="st0" d="M279,300.9c0-.9-.2-1.8-.6-2.6-5-11.1-43.3-91.6-90.5-86-2.3.3-12.1,2.7-11.2,10,.5,4-2.8,7.3-6.8,6.7-1.9-.3-3.6-.1-4.6.8-1.7,1.4-2.6,3.2-3.1,4.9-.9,3.3-4,5.3-7.3,4.7-7.5-1.4-18-3-15.5-.9,1,.8,4.6,2.8,8.8,5,5.1,2.7,4.3,10.2-1.2,11.8-6.7,1.9-12.5,4.6-11.7,8.2.5,2,4.2,4.1,9.9,6,6.7,2.3,4.9,12.2-2.2,11.9h-.2c-6.9-.4-9.4,9-3.2,12,.8.4,1.6.8,2.4,1.2,5.7,2.6,4.5,11-1.6,12.1-10.5,1.8-20,4.5-20.6,8.2s8.1,7.4,17.3,10.4c5.7,1.9,5.9,9.9.4,12-4.5,1.7-7,3.3-4,3.9,14.3,2.8,22.2,3.2,23.9,7.9,6.3,17.6,71.8,2.4,80.7.3.8-.2,1.5-.2,2.3-.1,2.5.3,7.6,1.4,1.9,4.8-7.3,4.4.9,16.3-25.6,19.8s-45.7,9-36.4,12.8-21.5,4.1-12.5,10.5c8.2,5.8-22.6,18.2-28,20.3-.5.2-1.1.5-1.5.9-3.3,2.5-16.3,12.9-8.9,13.7,8.4.9-34.6,18.9-22.4,23.3s11.6,6.4,17.2,6.1c5.5-.3-4.4,4.1,4.4,4.7,8.7.6-.9,10.8,4.9,9.9,5.8-.9-29.1,24.7-12.8,25.3,11.1.4,27.4.3,36.6.1,3.7,0,6.7,3.1,6.4,6.8-.6,9.2-.9,24.3,4.1,23.9,7.3-.6,18.3-7.3,21.5-4.9,3.2,2.3.6,28.8,9,26.2s23.6-18,23.6-20.1,8.4,4.7,12.8,1.7c4.4-2.9,9.3-4.1,21.5-58.2,11.3-50.2,21.2-92.9,22.5-98.8.1-.5.2-.9.2-1.4v-75.6h0v-.2Z"/>
  <path class="st1" d="M471.8,42.7c11.6,6.9,17.2,16.1,16.6,27.6-.4,8.2-2.9,14.7-7.4,19.5s-11.2,7-19.9,6.5c-4.3-.2-7.7-1.1-10.3-2.7s-5.5-4-8.8-7.3c-3.5-3.3-6.6-5.7-9.3-7.4-2.8-1.7-6.5-2.6-11.1-2.8-19.4-.9-34.1,13.2-44.2,42.3-10.1,29.1-17.5,67.8-22.4,116.1-1.6,16.3-5,30-10.1,41.1s-12.8,20.4-23.2,27.8c-10.4,7.4-24.3,13-41.7,16.9,16.6,5.3,28.1,12.9,34.4,22.8s9.1,23.1,8.3,39.6c-.5,10.8-2.1,21.7-4.9,32.7s-6.8,24.8-12.3,41.6c-5.6,17.5-10,32.4-13.2,44.9-3.2,12.5-5.1,25.2-5.7,38.1-.5,11.3,1.6,20.6,6.4,27.9,4.8,7.3,12,11.1,21.6,11.6,4.8.2,8.9-.4,12.3-1.7s7.5-3.6,12.3-6.6c4.6-2.9,8.4-4.9,11.4-6.2,3-1.2,6.5-1.8,10.7-1.6,6,.3,10.7,2.6,14,6.9s4.8,10.2,4.5,17.8c-.3,7.2-3.7,13.7-10,19.4s-15,10.1-26,13.1c-11.1,3-23.5,4.2-37.4,3.5-23.2-1.1-39.6-10.1-49.4-27.1-9.8-17-14-39.1-12.7-66.4.6-13.7,2.5-27.1,5.6-40.2s7.4-28.5,12.9-46.1c5.1-17.1,8.9-30.8,11.3-40.9,2.5-10.1,3.9-20.3,4.4-30.6.3-6.2-.8-11.3-3.4-15.4s-5.8-7.3-9.6-9.6c-3.9-2.3-8.9-4.8-15.1-7.6-7.2-3.3-12.5-6.2-15.8-8.7-3.3-2.6-4.9-6.2-4.7-10.8.2-5,1.9-9,5-12s6.8-5.4,11.2-7,10-3.2,16.7-4.8c9.7-2.3,16.3-4.4,19.7-6.3,7.8-4.5,14.2-11.6,19.3-21.5,5.1-9.9,8.8-24.2,11.1-42.8,4.6-38.3,10-70.8,16.3-97.5s17.4-50,33.2-69.8c15.8-19.8,37.8-29,65.9-27.7,17.3.8,31.8,4.7,43.4,11.6h0v-.2Z"/>
</svg>