<?xml version="1.0" encoding="UTF-8"?>
<svg id="Layer_2" data-name="Layer 2" xmlns="http://www.w3.org/2000/svg" viewBox="0 0 107.36 64.06">
  <defs>
    <style>
      .cls-1 {
        stroke-width: .95px;
      }

      .cls-1, .cls-2, .cls-3, .cls-4 {
        stroke-linecap: round;
        stroke-linejoin: round;
      }

      .cls-1, .cls-5 {
        fill: #de9dee;
      }

      .cls-1, .cls-5, .cls-4 {
        stroke: #4f1f78;
      }

      .cls-6 {
        stroke-width: 1.45px;
      }

      .cls-6, .cls-5 {
        stroke-miterlimit: 10;
      }

      .cls-6, .cls-3 {
        fill: #191919;
        stroke: #000;
      }

      .cls-2 {
        fill: none;
        stroke: #1c1b1a;
        stroke-width: .67px;
      }

      .cls-7 {
        fill: #4f1f78;
      }

      .cls-5, .cls-4 {
        stroke-width: 1.07px;
      }

      .cls-8 {
        fill: #c189e3;
      }

      .cls-3 {
        stroke-width: 1.45px;
      }

      .cls-4 {
        fill: #de9dee;
      }
    </style>
  </defs>
  <g id="Layer_1-2" data-name="Layer 1">
    <g>
      <rect class="cls-8" width="107.36" height="64.06" rx="19.86" ry="19.86"/>
      <path class="cls-7" d="M20.09,17.96c0,.06,0,.11-.02.14s-.04.08-.06.12c-.08.11-.13.18-.15.22-.07.04-.11.1-.14.16s-.07.12-.13.16c-.11,0-.19.04-.25.12-.02.07-.04.13-.08.17s-.06.09-.08.15c-.09.07-.2.12-.32.16s-.21.11-.27.22c-.07.02-.13.05-.19.09s-.14.05-.24.04c-.02,0-.04.02-.06.05s-.05.04-.09.05c-.07,0-.13-.02-.19-.07-.05,0-.09,0-.12.02s-.08.02-.14.03c-.08-.02-.13-.03-.13,0s-.01.03-.03.03c-.04,0-.09.01-.13.02s-.1.01-.16.02c-.07,0-.11,0-.13,0s-.05.02-.09.03c-.11-.03-.18-.04-.2-.01s-.06.05-.11.06c-.02,0-.05,0-.07,0s-.05.02-.07.03-.05.02-.07.03-.05,0-.09-.01c-.07-.06-.13-.08-.18-.06s-.11.02-.16,0c-.05,0-.09.02-.12.04s-.07.03-.12.03c-.09-.07-.16-.1-.19-.09s-.08.01-.12.01c-.08-.05-.14-.07-.18-.06s-.08.02-.12.04c-.02.02-.05.03-.08.05s-.06.02-.09.02c-.11-.02-.18-.04-.2-.05s-.06-.02-.08-.04c-.04.02-.09.04-.14.05s-.11.02-.18.02c-.03,0-.06.02-.08.02s-.05.01-.09.01c-.03-.02-.05-.03-.06-.05s-.02-.03-.04-.05c-.03.02-.06.04-.07.06s-.05.04-.09.04c-.03,0-.06-.01-.07-.04s-.04-.05-.07-.06c-.07-.02-.11-.03-.14-.04-.03,0-.08.02-.15.03s-.11,0-.12-.04c.03-.09.06-.15.09-.17s.06-.04.1-.06c.05,0,.09,0,.12.02s.08.03.14.02c.07-.02.12-.06.15-.11s.07-.1.11-.15c.11-.02.18-.05.22-.08s.06-.07.08-.13c.04-.03.08-.07.11-.1s.08-.06.14-.09c.03-.05.06-.09.07-.12.06-.06.1-.1.12-.13s.05-.05.09-.07c.02-.05.02-.1.02-.15s0-.1,0-.15c-.02-.07-.04-.11-.03-.13s0-.04,0-.06c-.03-.08-.05-.13-.04-.14s.01-.02.01-.04c0-.09.01-.17.03-.23s.04-.12.07-.18c0-.03.01-.06,0-.09s0-.06,0-.09c.02-.11.02-.16,0-.17s-.03-.01-.04-.03c0-.12,0-.22,0-.31s.02-.18.06-.26c-.02-.04-.04-.08-.06-.11s-.03-.07-.02-.13c.03-.09.05-.14.04-.16s-.01-.03-.02-.05c-.02-.02-.03-.04-.04-.06s-.03-.05-.04-.09c-.02-.07-.02-.12.02-.16,0-.09,0-.18-.01-.25s-.02-.16,0-.23c0-.07,0-.12,0-.14s.02-.03.02-.05c0-.11,0-.19.02-.24s.02-.11,0-.19c-.02-.04-.03-.07-.05-.09s-.03-.04-.04-.07c0-.06,0-.1.02-.12s.04-.06.05-.1c0-.02,0-.05-.01-.07s-.01-.04-.01-.07c0-.07-.01-.13,0-.18s0-.11,0-.17c-.02-.07-.02-.12,0-.13s.02-.03.03-.04c0-.07.01-.14.01-.19s-.01-.11-.04-.18c.02-.07.02-.12,0-.14s-.03-.03-.04-.05c0-.04-.01-.08,0-.11s.01-.06.02-.08c0-.11,0-.18-.02-.22s-.02-.09-.02-.14c0-.04.02-.07.03-.09s.03-.04.04-.07c-.02-.04-.05-.09-.09-.14s-.03-.1,0-.16c0-.03-.02-.06-.04-.07s-.03-.05-.05-.09c0-.04,0-.07.01-.09s0-.05,0-.09c-.07-.12-.13-.2-.16-.24s-.05-.09-.06-.16c-.02-.03-.06-.06-.1-.07s-.08-.04-.11-.07c-.07-.06-.13-.08-.16-.07-.07-.07-.15-.09-.26-.06-.05-.02-.09-.04-.12-.08s-.05-.09-.05-.17c-.04-.02-.1-.04-.17-.04s-.13,0-.18-.02c.02-.07.04-.1.06-.09s.06,0,.1,0c.05-.02.11-.03.17-.04s.13-.02.19-.02c.02,0,.05.02.06.04l.05.05s.11-.05.17-.09.13-.03.19.01c.02.02.03.04.04.06s.03.04.06.06c.03-.02.07-.04.11-.06s.08-.03.13-.02c.08-.02.13-.02.14-.01s.02.01.04.01c.03,0,.07-.03.11-.06s.08-.06.12-.09.09-.04.13-.04.08.01.11.06c.02.09.04.14.08.15s.07.02.11.05c.06-.02.12-.04.19-.06s.13-.01.18.03c.04-.02.09-.04.14-.06s.1-.02.16.01c.03,0,.06-.02.09-.02s.06-.01.1-.01c.07-.03.12-.05.16-.06.05,0,.09.02.12.03s.07.02.12.02c.02.02.04.03.06.04s.04.03.06.04c.04,0,.08,0,.11-.01s.07-.02.11-.02c.03-.02.07-.02.11-.02s.08,0,.12,0c.05,0,.1-.02.15-.02s.1,0,.14.04c.08.02.12.05.12.08s0,.05.01.07c.06,0,.11-.01.16,0s.1,0,.17,0c.04,0,.08.02.12.03s.09.02.14.03c.06.03.1.04.11.03s.04-.01.07,0c.06.07.1.1.11.11s.03.01.05.02c.02.03.03.06.05.09s.05.05.09.07c.04,0,.08-.02.11-.02s.06,0,.07.02c.13.09.24.18.32.27,0,.04.02.07.02.1s.02.05.04.09c.05,0,.09.01.12.03s.06.04.08.07l.07.07s.06.04.1.05c.02.02.02.06,0,.11s-.01.08,0,.11.03.04.06.04.05,0,.07.02c.02.02.05.04.07.06s.05.04.07.06c0,.06.01.1.04.13s.05.07.06.13c.05.03.09.07.12.11s.06.08.11.11c.05.06.07.09.07.11s0,.02.02.03c.04.13.07.25.07.35s.03.19.07.27c.02.07.05.12.07.13s.04.03.06.04c0,.04,0,.07,0,.1s-.02.05-.04.09c.02.1.03.17.05.22s.03.11.05.17c-.03.22-.05.39-.04.53s.04.27.09.39c0,.09-.01.17-.03.22s-.04.12-.06.19c.04.08.04.15,0,.2s-.08.11-.09.17c.03.14.04.24.02.29s-.03.11-.05.16c0,.04,0,.08,0,.12s-.03.08-.04.12-.03.08-.04.12-.02.08-.04.11c-.02.1-.03.17-.04.2s-.01.09-.01.14c-.03.04-.06.09-.07.15s-.02.12-.02.17c-.11.07-.19.17-.26.32ZM19.12,14.52s.01-.05,0-.07,0-.05.02-.06c-.02-.03-.03-.06-.05-.08s-.03-.05-.05-.09c.02-.1.04-.16.03-.19s-.01-.05-.02-.06c-.02-.03-.05-.06-.09-.08s-.06-.05-.07-.09-.02-.07-.01-.09,0-.04,0-.07c-.08-.12-.14-.23-.16-.35-.04-.02-.08-.03-.12-.05s-.07-.05-.09-.09c-.02-.03-.02-.06-.01-.07s0-.05,0-.09c-.02-.03-.04-.06-.06-.08s-.04-.06-.04-.11c-.09-.05-.16-.11-.21-.19-.09-.05-.14-.08-.15-.1s-.02-.03-.04-.04c-.08-.03-.12-.06-.12-.09-.08-.02-.14-.04-.16-.07s-.06-.05-.1-.07-.09-.03-.13-.03-.08-.03-.09-.07c-.02-.04-.05-.06-.08-.04s-.06.02-.11.02c-.02,0-.03-.02-.04-.04s-.03-.04-.06-.06c-.04-.02-.08-.02-.12,0s-.08.02-.13.03c-.02,0-.05-.02-.06-.03s-.05-.01-.09,0c-.03-.02-.07-.06-.11-.12-.12.06-.2.08-.27.07s-.11.02-.13.09c.02.06.05.1.09.13s.06.06.07.11c.02.09.01.16-.03.21s-.07.12-.08.2c.04.12.06.22.06.29s0,.13-.02.2c.02.04.02.1.02.17s0,.13-.02.17c.05.1.07.22.07.37-.02.09-.04.18-.05.28s-.01.2-.01.3c.04.08.06.18.07.3s0,.22,0,.31c.02.02.03.04.03.06s.01.05.02.07c0,.15-.01.28,0,.38s0,.2-.03.29v.14s0,.03.01.04c-.02.12-.04.22-.07.3s-.04.18-.04.3c.04.06.06.13.06.22s.01.16.04.23c0,.04.01.08,0,.11s0,.06,0,.11c-.02.08-.02.15-.02.21.04.11.05.17.03.2s-.04.05-.07.06-.05.04-.08.06-.05.05-.06.08c.07.06.12.1.12.11s.01.03.01.05c0,.05-.03.1-.06.14-.02.07-.02.12,0,.17s.03.1.04.15c.04.07.06.11.05.12s-.01.03-.01.04c.12-.04.18-.06.19-.04s.02.02.04.02c.08-.04.13-.07.14-.09s.03-.04.06-.06c.02.06.03.12.03.19s.03.09.08.07v-.15s.06-.07.09-.1.07-.05.14-.05c.04,0,.06.03.06.06s0,.06,0,.09c.11-.02.17-.04.19-.06s.05-.05.09-.06c.07,0,.12,0,.12-.01s.02-.02.04-.02c0-.06.03-.1.07-.13s.07-.06.11-.09c.08-.03.13-.05.14-.04s.03,0,.04,0c.03-.02.06-.05.09-.09s.05-.07.07-.11c.07-.09.13-.17.16-.22s.06-.12.11-.17c.07,0,.1,0,.11-.05s.01-.09.01-.15c.03-.08.1-.14.19-.16.02-.07.04-.12.04-.14,0-.04.02-.07.04-.1s.03-.06.03-.11c.05-.07.07-.13.07-.2.02-.06.02-.11,0-.15s-.02-.09-.02-.15c.02-.07.06-.13.11-.16s.08-.08.1-.15c-.02-.09-.03-.14-.02-.16s.02-.03.03-.04c.02-.1.02-.17,0-.22s-.03-.09-.04-.13c.02-.07.02-.14.02-.2s0-.13.02-.2c-.09-.04-.12-.1-.09-.18s.06-.15.07-.2c0-.03-.01-.07-.02-.11s0-.07,0-.09l.04-.07Z"/>
      <path class="cls-7" d="M26.38,11.64s.02.05.02.07,0,.05.02.06c-.02.07-.06.13-.1.19,0,.1-.02.17-.08.22s-.11.11-.14.17c-.02.1-.06.17-.12.22,0,.04-.01.08-.02.12s0,.07.02.11c-.02.03-.04.06-.06.07s-.04.04-.06.07c0,.09,0,.14-.02.16s-.04.04-.06.07c-.06.11-.1.18-.13.23s-.05.1-.07.16c-.05.12-.1.19-.14.24-.04,0-.07,0-.08-.01s-.03-.03-.06-.04c-.02.09-.05.13-.08.11s-.05-.05-.06-.08c-.1,0-.16,0-.18-.02s-.05-.04-.09-.05c-.05,0-.09,0-.12.01s-.07.02-.12.02c-.03,0-.06-.02-.08-.04s-.05-.03-.08-.03c-.04,0-.07,0-.1.02s-.05.05-.09.06c-.06-.02-.11-.02-.16,0s-.1.03-.17.04c-.08-.02-.14-.04-.18-.05s-.06-.03-.07-.07c-.1.05-.16.06-.17.04s-.03-.04-.06-.07c-.04,0-.08.02-.11.03s-.05.03-.07.04c-.09-.06-.15-.03-.19.07.05.14.06.23.02.26s-.06.08-.07.14c.02.05.05.1.06.16s.01.11-.01.18c.02.04.03.09.04.15s0,.11-.02.16c.04.12.05.23.03.35s-.02.23,0,.34c.03,0,.06,0,.09,0s.06-.01.11-.01c.1-.02.16-.03.18-.02s.04.03.07.04c.02,0,.04-.01.06,0s.05,0,.07,0,.05-.02.07-.03.04-.01.07,0c.08.02.14.02.17.02h.08c.07-.06.16-.08.25-.07.06-.04.1-.1.14-.16s.09-.11.16-.14c.09-.02.14-.05.16-.09s.05-.08.1-.09c.03-.07.06-.12.07-.14.07-.05.12-.08.15-.1s.07-.02.12-.02c0,.1.01.15.04.16s.03.02.01.04c0,.02-.02.04-.05.06s-.05.03-.06.04c0,.03,0,.06,0,.07s-.01.04-.01.06c-.03.03-.08.06-.14.09-.04.05-.07.12-.1.2,0,.13-.03.23-.06.3s-.05.15-.06.25c-.1.06-.16.11-.18.17s-.05.1-.08.14c0,.1-.02.17-.04.2s-.04.07-.07.1c-.1.06-.16.09-.19.08s-.05,0-.07.02c-.04,0-.08-.01-.12-.01s-.08,0-.12-.02c-.03-.02-.07-.01-.11.01s-.07.04-.11.04c-.05,0-.09-.01-.11-.04s-.04-.05-.07-.06c-.04,0-.09.02-.13.02s-.08.02-.11.05c-.03,0-.06,0-.08,0s-.05-.01-.08-.01c-.02.02-.04.06-.05.1s-.03.07-.07.07c0,.04.02.07.04.09l.07.07c-.02.1-.03.19-.05.26-.02.12-.02.18,0,.2s.04.06.04.12c0,.04-.02.08-.04.11s-.04.07-.06.11c0,.04.02.07.03.1s.01.06,0,.11c.04.16.04.25,0,.27s-.07.07-.08.14c.02.04.03.07.04.1s.02.06.02.1c.02.02.03.04.03.06s.01.05.03.06c.1-.02.15-.03.16-.02s.02.03.04.04c.03-.02.06-.03.09-.03s.05-.01.07-.03c.06,0,.1,0,.12.01s.06.03.1.04c.07-.02.12-.04.16-.07s.11-.04.2-.03c.02.02.03.04.03.07s0,.06,0,.09c.03,0,.06-.01.09-.04s.07-.04.12-.02c.09-.03.14-.03.14.01.07-.02.11-.05.14-.09s.07-.07.12-.09c.07.02.11.01.12,0s.04-.04.06-.06c.13-.02.22-.06.25-.14s.07-.15.12-.22c.02-.02.06-.03.09-.03s.08-.01.12-.02c.02-.04.05-.09.06-.15s.04-.11.07-.15c.02-.02.05-.05.07-.06s.05-.05.06-.09c.07-.07.12-.13.16-.18s.1-.07.19-.06c.07.07.1.11.06.12s-.05.05-.06.11c0,.02.02.05.03.07s.01.05,0,.09c-.07.11-.1.18-.11.21s-.02.07-.04.1c0,.04,0,.07.01.1s.03.06.04.1c-.07.07-.1.11-.11.12s0,.03,0,.05c0,.03,0,.06.02.07s.02.04.03.06c0,.04,0,.07-.01.09s-.02.04-.04.07c-.06.03-.09.06-.11.09s-.01.06,0,.08c-.05.08-.08.13-.08.14s-.01.01-.03.01c-.02.06-.03.12-.03.18s-.02.12-.04.17c-.02.02-.04.02-.08.01s-.06,0-.07.02c0,.04.02.07.02.09s.02.04.04.07c0,.04,0,.08.02.11s.02.06.02.11c-.02.04-.07.06-.12.04s-.1-.03-.14-.04c-.02,0-.05.02-.06.04s-.04.02-.07.02c-.08-.02-.15-.04-.2-.05-.11.06-.2.08-.28.07s-.16-.01-.23-.01c-.12,0-.21-.01-.25-.04s-.09-.04-.14-.04c-.03,0-.06.02-.07.04s-.05.03-.09.05c-.03,0-.07-.01-.1-.01h-.11c-.09-.03-.16-.03-.22,0s-.1.02-.14-.04c-.02.02-.04.04-.07.06s-.06.02-.09-.02c0-.02,0-.05.01-.07s0-.05-.01-.06c-.12.04-.2.07-.24.09s-.09.04-.16.04c-.1.02-.17.03-.2.02s-.06-.04-.07-.08c-.12.02-.2.05-.22.08s-.06.04-.11.04c-.04-.03-.1-.06-.16-.07s-.13-.01-.2,0c-.07-.02-.12-.02-.17-.02s-.08,0-.11.02c-.04.03-.07.07-.1.12s-.07.08-.14.09c-.06,0-.1-.03-.12-.06s-.06-.05-.1-.07c-.04,0-.07.01-.09.04s-.05.04-.09.04c-.14-.09-.25-.15-.32-.17s-.15-.04-.24-.05c0-.07.04-.1.09-.09s.08-.01.1-.06c.06-.02.1-.03.11-.03s.03-.01.05-.03c.04,0,.08,0,.12,0s.07,0,.11.01c.12,0,.2-.04.25-.09s.1-.11.16-.18c.06-.02.09-.03.1-.04s.02-.02.04-.03c.06-.1.1-.17.12-.21s.05-.08.09-.11c-.02-.05-.01-.09.02-.12s.05-.07.07-.11c-.02-.12-.03-.19-.01-.23s.03-.08.05-.12c0-.08-.01-.16-.04-.22,0-.09.01-.14.01-.16s0-.03.02-.04c-.02-.03-.04-.07-.05-.11s-.02-.08-.02-.12c0-.02-.02-.04-.04-.06s-.04-.03-.06-.06c.02-.08.07-.15.14-.2,0-.05,0-.09.02-.12s.03-.06.05-.11c-.02-.04-.04-.07-.06-.08s-.03-.04-.03-.07c0-.05,0-.11.04-.17s.06-.13.06-.19c-.02-.1-.02-.17,0-.2s.04-.07.05-.11c-.04-.07-.08-.13-.11-.2s-.06-.14-.08-.21c-.02-.04-.02-.08,0-.11s.03-.07.04-.11c0-.07,0-.12-.01-.14s0-.05,0-.08c-.02-.09-.03-.16-.01-.2s.03-.09.05-.14c0-.1-.02-.18-.06-.24s-.08-.12-.12-.17c0-.06,0-.11.02-.14s.03-.08.04-.12c-.02-.14-.03-.24-.02-.3s.01-.12,0-.19c0-.06.03-.12.06-.2,0-.09,0-.14.02-.16s.03-.05.02-.1c-.02-.03-.04-.06-.07-.07s-.05-.04-.07-.08c0-.03.01-.05.04-.06s.04-.02.05-.05c-.05-.02-.1-.05-.14-.06-.07-.07-.14-.11-.2-.12s-.08-.05-.07-.12c-.12-.03-.19-.05-.21-.06-.02-.02-.03-.04-.04-.06s-.03-.04-.06-.04c-.02,0-.05,0-.08.01s-.06,0-.08-.01c-.04-.04-.05-.09-.02-.14s.06-.1.1-.13c.1.02.17.02.2.02s.07,0,.1-.02c.07-.03.12-.04.13-.03s.03.02.04.03c.1,0,.15.01.16.03s.01.04.03.04c.12,0,.21,0,.26-.02s.09-.04.12-.06c.07.02.11.01.14-.02s.07-.04.12-.04c.12.05.2.07.25.06s.1-.02.15-.03.1-.02.14-.02.09.01.13.04c.05-.02.1-.05.14-.09s.1-.04.17-.02c.06.02.1.09.12.19.07-.03.16-.06.24-.08s.18-.03.27-.02c.1.06.17.08.22.07s.09,0,.13.02c.17.03.29,0,.39-.09.04-.02.08-.06.11-.09s.07-.06.12-.08c.05,0,.07.05.07.12.03,0,.06-.02.09-.04s.06-.02.1,0c.05-.06.09-.1.12-.11s.06-.03.11-.05c.06.08.09.12.1.11s.02-.02.04-.02c.05-.11.1-.18.15-.23s.1-.09.15-.13c.08,0,.13-.04.14-.09s.04-.08.08-.1c.07,0,.12-.02.14-.05s.04-.07.06-.1.05-.06.07-.08.06-.02.09,0Z"/>
      <path class="cls-7" d="M30.81,17.02c.02.07.03.12.05.16,0,.12-.01.23-.04.34s-.02.21.01.3c-.03.07-.07.12-.12.17s-.09.1-.14.15c0,.03,0,.07,0,.1s0,.06,0,.09c0,.04-.02.07-.04.09s-.04.04-.06.07l-.12.15c-.04.1-.07.16-.09.17s-.05.02-.09.02c-.04.07-.06.16-.06.27-.07.06-.12.1-.15.11s-.06.03-.1.05c-.02.02-.05.04-.06.06s-.05.04-.09.05c-.02.03-.05.07-.07.1s-.05.07-.07.11c-.07,0-.12,0-.12,0s-.02-.02-.05-.02c-.08.05-.14.1-.19.14-.02,0-.04.01-.06.02s-.05.01-.07.03c-.03,0-.06-.01-.07,0s-.04,0-.06,0c-.12,0-.19,0-.24,0s-.08-.03-.12-.04c-.03.02-.06.04-.07.06s-.05.04-.1.06c-.03,0-.06-.02-.09-.02s-.05-.02-.09-.02c-.1-.06-.17-.08-.22-.07s-.1.01-.16,0c-.02-.04-.04-.07-.06-.09s-.05-.04-.07-.07c-.02,0-.05,0-.07,0s-.04,0-.07,0c-.04-.04-.1-.06-.17-.05s-.12,0-.16-.05c-.06-.07-.11-.11-.14-.1s-.08,0-.13,0c-.07-.03-.11-.08-.14-.14s-.07-.11-.14-.14c-.02-.08-.03-.13-.02-.14s.01-.03.01-.06c-.02,0-.04-.01-.07,0s-.06,0-.08,0c-.03-.03-.07-.06-.11-.09s-.07-.06-.09-.11c0-.03,0-.06.02-.08s.03-.04.04-.07c-.07-.04-.11-.07-.11-.09s0-.03,0-.05c-.05-.12-.08-.21-.1-.27-.06,0-.09-.02-.09-.04s0-.03-.02-.05c.03-.02.06-.02.09-.02s.05,0,.09-.02c0-.09,0-.14,0-.16.02-.05.06-.08.11-.09s.09-.03.12-.07c0-.12.04-.17.09-.17s.1-.01.14-.04c.02-.09.05-.14.07-.14s.05-.01.07-.03c.07-.12.14-.2.2-.25s.12-.12.18-.2c.04-.02.1-.04.17-.07s.13-.04.17-.03c.03.02.04.04.03.06s-.01.05,0,.07c-.05.09-.08.14-.09.16s-.02.03-.04.05c0,.02,0,.05,0,.08s0,.06-.01.09c.07.02.1.06.1.1-.02.03-.03.06-.04.07s-.03.04-.04.08c0,.05,0,.12.01.2-.02.06-.02.11,0,.15s.05.09.06.15c0,.03,0,.06-.01.08s-.01.04-.01.07c.02.04.04.07.07.1s.05.06.07.1c0,.02-.02.05-.03.07s-.02.05-.02.09c.04.02.08,0,.12-.02s.08-.04.12-.01c.02.07.04.09.07.05s.07-.04.11,0c.02.03.02.06,0,.07s-.02.04-.02.06c0,.03.02.05.04.06s.04.02.07.04c.04,0,.07-.01.09-.03s.05-.03.09-.03c.04,0,.08.02.11.04s.07.02.13.01c.07-.03.12-.05.13-.06s.03-.02.04-.02c.04-.03.08-.06.11-.09s.07-.05.11-.09c.06,0,.09,0,.1,0s.02.02.04.02c.02-.02.03-.04.04-.06s.03-.05.04-.06c.05,0,.1-.02.15-.04.02-.03.02-.07.02-.12s0-.1.02-.14c.07-.12.12-.19.12-.21,0-.07,0-.12,0-.17s.01-.1,0-.17c.07-.07.11-.14.11-.19s0-.1,0-.14c0-.02-.03-.04-.06-.04s-.06-.01-.07-.03c-.02-.04-.02-.07,0-.1s.02-.06.02-.1c-.02-.03-.04-.06-.06-.09l-.07-.07s-.07,0-.1-.02-.05-.02-.07-.03c-.02-.05-.04-.09-.08-.12s-.08-.06-.12-.11c-.04,0-.08,0-.11,0s-.07-.01-.11,0c-.03-.03-.07-.06-.11-.09s-.08-.06-.11-.1c-.04-.02-.07-.02-.1-.01s-.05.02-.09.02c-.02,0-.05.01-.08,0s-.06,0-.08,0c-.11-.1-.2-.16-.29-.19s-.16-.06-.23-.1c-.06-.14-.13-.21-.22-.21-.05-.02-.09-.04-.12-.07s-.08-.05-.14-.06c-.06-.06-.12-.11-.2-.16-.07-.09-.14-.17-.19-.24-.04-.08-.08-.14-.11-.18s-.06-.08-.09-.12c-.05-.05-.08-.1-.09-.16-.02-.14-.03-.25,0-.33s.05-.15.08-.22c0-.08.01-.16,0-.24s.01-.14.04-.19c.04-.19.08-.34.12-.43s.11-.17.23-.2c.04-.07.08-.13.12-.2s.09-.12.16-.16c.11-.04.18-.08.22-.12s.08-.09.12-.14c.07-.02.12-.04.16-.08s.09-.07.14-.11c.04,0,.08.02.11.02s.06.02.09.02c.04-.02.08-.05.12-.08s.09-.05.16-.07c.05.06.09.08.11.07s.05,0,.06.01c.04-.02.08-.03.12-.05s.08-.02.13-.02c.04.02.07.04.09.07s.04.06.06.08c.07,0,.12-.03.15-.06s.08-.06.15-.07c.03.02.06.04.08.06s.05.04.09.04c.03,0,.06,0,.08-.02s.05-.01.08,0c.09.06.14.14.16.24h.16s.03.05.05.09.04.06.06.09c.04,0,.08.02.11.02s.06.03.07.07c0,.08.01.12.04.12s.05,0,.06.02c.06.05.1.08.12.08s.05,0,.06,0c.02.04.03.09.03.13s.01.09.02.13c.05.04.07.08.07.12-.04.02-.09.06-.15.12s-.08.12-.06.16l-.07.2c-.04.08-.08.14-.11.17s-.07.05-.1.07c0,.1-.06.17-.15.21l-.09.15s-.08.09-.12.13-.07.1-.07.17c-.02.02-.05.03-.07.04s-.06.01-.1,0c-.02-.02-.03-.05-.03-.08s0-.06.03-.11c0-.09.01-.15.04-.18s.04-.06.04-.09c-.08-.05-.13-.08-.14-.08s-.02-.01-.02-.03c0-.04,0-.07.02-.09s.01-.05,0-.09c0-.07,0-.12.01-.17-.04-.02-.07-.04-.07-.07s-.02-.07-.02-.1c-.04-.07-.05-.11-.03-.13s.03-.05.02-.09c-.12-.03-.21-.07-.25-.1s-.09-.07-.15-.1c-.04,0-.07,0-.1.01s-.06.01-.1.01c-.04-.02-.06-.06-.06-.14-.08.07-.13.11-.15.12s-.04.03-.07.04c-.12-.04-.19-.05-.23-.02s-.08.05-.12.06c-.06.06-.1.12-.11.19,0,.07,0,.13.01.17-.02.02-.04.05-.06.07s-.06.03-.11.02c-.02.05-.02.11-.02.18s.01.13.03.17c-.02.06-.02.09-.01.11s.02.03.02.04c-.02.06-.02.12.01.17s.04.12.01.17c.06.03.12.06.17.07s.09.06.1.14c.04.02.09.04.14.04s.1.01.14.04c.02.05.05.09.1.11s.08.06.1.11c.12,0,.2,0,.25.02s.12.01.19,0c.07.02.13.04.18.07s.11.07.17.1c.03,0,.06-.02.08-.02s.04-.01.06-.01c.05,0,.09.02.11.06s.05.07.07.09c.05,0,.09.01.11.04s.05.04.09.05c.06.1.12.16.19.18s.13.05.19.09c.04.05.07.1.1.16s.05.13.06.22c.03.04.07.08.11.12s.06.09.06.14c.02.11.03.18.02.21s-.02.07-.04.11c.02.02.04.03.07.03s.05.01.07.03Z"/>
      <path class="cls-7" d="M33.11,17.11c0,.06,0,.11-.04.16s-.06.1-.08.15c.03.05.05.11.06.17s0,.13,0,.19-.01.13-.02.2,0,.13.02.19c-.02.06-.04.12-.03.19s.01.13.02.2c-.02.11-.03.18-.01.23s.02.1.02.17c-.05.11-.07.18-.06.22s.01.07,0,.1c.04.12.06.2.05.22s0,.05.01.09c-.02.02-.02.05-.02.09s0,.07-.02.1c-.06,0-.09-.02-.1-.05s-.02-.06-.05-.07c-.02,0-.06.01-.12.01s-.1,0-.14-.02c-.03.02-.06.04-.08.06s-.05.03-.09.01c-.02.02-.03.04-.04.07s-.03.05-.06.07c-.06-.07-.09-.12-.09-.16s-.01-.07-.03-.09c-.14.09-.24.12-.29.07-.1.02-.19,0-.26-.05,0-.13,0-.21.05-.24-.02-.04-.03-.09-.03-.13s-.01-.09-.02-.13c.02-.03.03-.07.05-.12s.02-.1,0-.16c-.03-.09-.04-.16-.03-.21s.01-.11,0-.17c.02-.11.04-.18.06-.21s.03-.07.01-.12c-.02-.07-.04-.14-.05-.21s0-.14.05-.2c-.02-.04-.03-.09-.03-.13s-.01-.09-.03-.13c0-.07,0-.12.01-.16,0-.02,0-.05,0-.07s0-.04,0-.07c-.04-.04-.06-.11-.05-.21s.03-.17.07-.2c-.04-.12-.06-.25-.05-.4s0-.3-.01-.44c.03-.05.04-.12.02-.2.02-.07.03-.13.02-.16s0-.07.01-.1c-.02-.04-.04-.1-.03-.19s.03-.14.07-.17c-.02-.03-.03-.07-.04-.11s0-.07.02-.1c-.02-.06-.03-.11-.05-.14s-.03-.09-.04-.14c0-.03,0-.06.01-.07s.02-.04.01-.08c.06-.07.09-.14.1-.19s.04-.07.1-.07c-.1-.11-.16-.17-.19-.19,0-.02-.02-.05-.04-.07s-.02-.05-.01-.09c.02-.1.02-.17-.01-.22s-.07-.1-.11-.14c0-.03-.02-.06-.02-.09s0-.06,0-.1c.02-.18-.03-.29-.17-.31-.03-.07-.06-.1-.07-.1s-.03,0-.04-.02c-.04-.08-.09-.12-.14-.11s-.1,0-.13-.03c0-.04-.01-.07-.04-.07s-.05-.02-.06-.05c0-.03.01-.05.04-.06s.05-.02.07-.02c.04.03.09.05.15.05.04,0,.08-.03.12-.06s.08-.05.13-.04c.08.04.13.05.14.02s.04-.04.08-.04c.06.09.1.13.13.11s.06-.04.08-.06c.04-.02.09-.02.16-.01s.11.02.16.05c.05-.02.1-.02.15-.02s.11,0,.17,0c.07.02.11.03.12,0s.04-.04.07-.04c.02,0,.04.02.06.04s.03.04.04.06c.04,0,.07,0,.1,0s.05-.02.07-.04c.13-.05.2-.04.2.02s0,.13-.02.2c0,.02.02.05.03.06s.02.04.03.06c-.06.09-.09.14-.11.16s-.02.03-.02.05c0,.04,0,.08.03.11s.04.08.02.14c-.07.08-.09.13-.07.14s.04.02.07.02c.02.11.03.17.01.18s-.03.04-.04.07c.02.07.03.11.05.14-.02.04-.02.08-.02.12v.12s-.02.08-.03.11-.02.07-.02.11c0,.07.01.13.04.18s.02.11,0,.17c.02.25.02.44-.01.57,0,.11.02.19.02.24s0,.1-.02.14c0,.02.02.05.04.06s.02.04.02.06c0,.08-.01.15-.06.2-.05.1-.06.16-.02.19s.06.06.07.1c0,.07,0,.12-.02.15s-.03.08-.02.14c0,.04.02.08.04.12s.03.08.04.12c-.06.04-.08.08-.07.11s0,.05,0,.07c.02.03.04.06.06.08s.04.05.05.09Z"/>
      <path class="cls-7" d="M39.03,16.54s.06-.04.1-.06.08-.02.12.02c-.02.04-.05.08-.1.11s-.07.08-.05.14c-.05.05-.08.09-.09.13s-.03.08-.04.12c0,.04.02.09.07.13s.08.09.07.13c-.09.05-.13.09-.13.12s.01.05.03.07c0,0,.01.06.01.14s0,.19,0,.3,0,.22,0,.32,0,.18.01.23c.02.03.03.07.04.1s.01.07,0,.1c-.05.03-.05.1,0,.2s.08.18.09.24c-.1.05-.14.1-.11.16s.05.1.06.14c-.07.09-.1.16-.11.2.04.08.07.13.08.14s.02.02.03.04c-.02.1-.04.15-.07.15s-.06,0-.09.02c-.02-.02-.05-.03-.09-.04s-.09-.01-.14-.01c0,.05-.04.08-.11.1-.04.08-.07.13-.09.15s-.03.03-.05.04c.02.11.02.16-.02.16s-.08,0-.12.03c0,.08-.01.12-.02.12s-.01,0-.03.02c-.03.11-.05.18-.05.2s0,.06-.02.08c-.02.07-.03.11-.05.11s-.02,0-.02.02c.05.08.06.14.02.16-.08.06-.13.06-.13.02s-.01-.09-.02-.12c-.06-.06-.08-.1-.07-.12s.02-.04.02-.06c0-.08,0-.14,0-.16s.02-.05.04-.09c-.05-.07-.07-.11-.05-.12s.02-.03.02-.04c-.02-.11-.03-.18-.04-.22.02-.03.06-.07.11-.1s.06-.07.03-.11c-.1-.07-.15-.13-.15-.16,0-.02.02-.05.02-.07s.02-.06.02-.1c.02-.07.03-.12.03-.12s0-.02,0-.04c-.08,0-.14.02-.16.04s-.06.04-.1.06c-.06.12-.14.19-.24.24-.12,0-.2.02-.23.03s-.05.03-.07.04c-.06,0-.11,0-.16,0-.15,0-.27.03-.36.07-.11.04-.18.06-.23.07s-.09,0-.13-.02c-.04,0-.08.02-.11.04s-.07.02-.12.01c-.04-.06-.08-.08-.11-.07s-.05,0-.07-.01c-.07,0-.13,0-.16,0s-.07-.02-.11-.03c-.08-.07-.13-.11-.14-.12s-.04-.03-.07-.04c-.02-.06-.05-.1-.09-.13s-.08-.06-.11-.11c-.05,0-.09-.02-.12-.04s-.07-.04-.13-.04c-.02-.02-.05-.04-.08-.06s-.05-.05-.07-.08c0-.08-.01-.13-.03-.14s-.04-.02-.06-.04c-.06,0-.1-.03-.11-.09.02-.04.03-.08.04-.12s.02-.09.03-.14c-.07,0-.12-.01-.15-.04s-.08-.04-.14-.03c-.03-.02-.05-.05-.06-.09s0-.08.01-.12c-.02-.04-.04-.07-.07-.08s-.06-.04-.07-.07c-.04-.08-.06-.16-.06-.22s.01-.13.02-.19c0-.04-.03-.08-.07-.12,0-.04-.01-.07,0-.09s.01-.05.02-.09c0-.09-.01-.14,0-.16s0-.05,0-.09c-.08-.07-.13-.12-.14-.14s-.02-.05-.03-.08c0-.1,0-.15,0-.16s-.02-.01-.03-.03c0-.09,0-.17,0-.25s0-.15.03-.22c0-.03-.01-.06-.03-.08s-.03-.05-.03-.09c0-.03,0-.06.02-.09s.03-.06.03-.1c-.06-.13-.07-.21-.04-.24s.04-.07.04-.14c-.03-.03-.06-.07-.07-.12s0-.1.03-.15c.02-.02.05-.04.08-.06s.06-.04.08-.07c0-.04.01-.08,0-.12s0-.08,0-.11c0-.02.02-.05.03-.07s.02-.04.03-.06c0-.04.02-.08.02-.12s.02-.08.04-.12c.02-.02.04-.05.06-.09s.05-.06.07-.07c-.03-.1-.05-.17-.06-.22s0-.09.02-.13.04-.07.06-.1.05-.06.07-.1c.02-.03.03-.06.05-.09s.03-.06.05-.11c.03-.04.07-.07.11-.1s.07-.06.09-.1c.02-.07.04-.11.06-.11s.02,0,.03-.01c0-.12.07-.19.2-.24.04-.12.1-.2.18-.27s.16-.12.24-.18c.07-.02.13-.02.17-.01.09-.12.17-.2.22-.23s.12-.05.19-.07c.07-.07.12-.1.14-.1s.04,0,.06-.01c.03,0,.06,0,.08-.02s.04-.02.07-.02c.05-.02.1-.04.14-.06s.1-.03.17-.02c.06.02.1.07.11.15.04-.02.09-.02.14-.02s.1.01.14.04c.04-.02.08-.03.12-.03s.08,0,.12.02c.02.02.03.04.04.07s.02.06.04.07c.02,0,.05.01.07.01s.04,0,.07.01c.06.02.1.06.12.1s.05.07.09.1c.05,0,.1.02.14.02s.08.02.11.04c.02.11.05.17.1.17s.09.02.11.04c.04,0,.08,0,.11,0s.06.02.09.04c0,.12.03.22.09.29.1.02.16.03.17.05s.03.03.04.05c.05.04.08.07.09.09s.02.04.02.07c.04.04.06.09.05.15-.02.04-.01.08.03.11s.06.06.04.07c-.08.02-.12.05-.12.07-.05.02-.09.05-.12.06s-.07.02-.1,0c-.02.02-.04.05-.06.08s-.07.04-.12.04c-.05.09-.11.17-.19.22-.13-.02-.2,0-.19.05s0,.1,0,.14l-.05.05s-.03.04-.05.06c-.09.05-.14.08-.14.1s0,.03-.02.05c-.1.05-.19.09-.26.12-.07.04-.1.07-.11.09s-.02.03-.04.04c-.09,0-.16.03-.19.07s-.08.04-.12,0c.02-.12.04-.2.07-.22.05-.08.08-.13.09-.14s.03-.02.04-.04c0-.04.01-.07.04-.1s.05-.05.06-.09c0-.04.01-.09.04-.14,0-.06,0-.09,0-.11l.04-.04s-.04-.09-.07-.12-.04-.08-.03-.15c.07-.03.11-.06.1-.07s-.02-.03-.02-.05c-.06-.05-.1-.08-.13-.1s-.06-.04-.09-.06c-.02,0-.05-.01-.07,0s-.05,0-.08-.02c-.03-.1-.07-.15-.1-.14s-.06,0-.09,0c-.02-.02-.04-.04-.06-.06s-.05-.04-.08-.05c-.14.06-.24.1-.3.14s-.13.07-.19.1c-.08.02-.14.04-.17.06s-.06.04-.11.07c-.03.06-.07.11-.11.16s-.06.11-.08.19l-.05.05-.05.05c0,.12,0,.19-.02.21s-.02.06-.03.1c-.07.08-.1.13-.09.15s.01.03.01.05c-.02.03-.04.06-.06.09s-.05.05-.06.07c.02.12.03.18.02.2s-.02.03-.03.05c0,.03,0,.06.02.07s.02.04.02.07c0,.04-.02.07-.04.09s-.04.05-.06.08c.04.07.04.15,0,.25.04.1.06.17.04.2s-.01.07,0,.11c0,.07-.02.13-.03.16s-.03.06-.04.09c.02.08.05.13.09.15,0,.05,0,.09-.01.12s-.03.06-.04.11c.07.05.11.09.09.13s-.04.06-.07.08c-.02.06-.02.11-.01.15.03,0,.06.03.07.06s.01.06,0,.08c.07.06.11.09.09.11s-.02.03-.03.04c0,.04,0,.1.02.16-.02.05-.03.1-.02.15s.04.09.07.11c-.02.04-.03.08-.04.12s-.01.08,0,.12h.08s.05,0,.07.02c.02.06,0,.12-.04.17.02.04.05.07.09.09s.08.04.11.07c.02,0,.06-.01.11,0s.07.02.08.06c0,.07.04.09.09.07s.09,0,.12.04c0,.03-.01.05-.03.06s-.04.03-.04.06c.09.03.14.06.14.07s0,.03.01.04c.12-.02.2-.02.26,0s.11.02.15,0c.03-.02.06-.02.09-.02s.05,0,.07-.02c.02,0,.07,0,.15,0s.13-.01.15-.02c.03-.02.07-.03.1-.03s.07-.02.1-.04c.05-.05.1-.11.15-.19.02-.02.04-.03.07-.04s.05-.02.07-.03c.02-.07.05-.12.07-.15s.05-.06.06-.1v-.14s.07-.1.08-.16.01-.1,0-.13c.02-.05.06-.1.1-.14,0-.04-.01-.09-.01-.16v-.13s-.04-.05-.1-.04-.1,0-.11-.02c-.03,0-.07.02-.1.05s-.07.05-.11.05c-.13-.06-.21-.07-.24-.04s-.07.06-.12.09l-.25-.07c-.08-.04-.13-.05-.14-.04s-.03.02-.06.02c-.05.02-.1.02-.14.02-.02-.1-.01-.17.02-.2s.04-.08.04-.15c0-.16.04-.26.09-.3-.05-.02-.08-.07-.09-.12-.04-.09-.04-.13.01-.12s.1.01.14,0c.12-.03.21-.05.25-.04s.09.01.14.01c.07,0,.12-.02.14-.03s.04-.02.06-.03c.07,0,.12.02.16.03s.1.02.16.02c.09,0,.14,0,.14,0s.01.02.03.03c.05,0,.1,0,.15-.02s.1-.01.15,0c.07-.02.12-.02.14-.01s.03.02.05.02c.04-.02.09-.03.14-.04s.09,0,.12.05c.03,0,.06,0,.08,0s.04.03.07.04c.08-.03.15-.03.21,0Z"/>
      <path class="cls-7" d="M45.37,12.36c.02.09.02.15,0,.17s-.03.05-.05.06h-.16c-.03.09-.07.14-.11.14s-.06.01-.08.04c-.05.02-.08.03-.08.04s-.01.03-.03.04c-.06.05-.1.08-.12.1s-.04.05-.04.09c-.02.02-.04.03-.08.04s-.07.02-.09.02c-.03.16-.07.25-.1.29s-.06.09-.07.14c0,.08.02.13.05.15s.05.03.06.05c-.02.06-.04.09-.06.09s-.04.01-.06.03c0,.03,0,.06.02.08s.02.05.03.08c0,.07-.02.11-.05.14s-.05.08-.04.14c.07.09.09.15.07.17s-.03.04-.04.07c.07.1.09.16.07.18s-.03.04-.05.07c.02.1.03.16.02.17s-.02.03-.03.04c.02.11.02.17,0,.18s-.06.03-.08.04c.04.03.08.06.11.09s.05.06.07.1c0,.04,0,.07.01.1s.02.06.01.1c0,.02,0,.05-.02.06s-.03.04-.04.06c0,.02.02.05.03.07s.01.05,0,.07c-.05.1-.07.16-.06.19s0,.06-.01.09c0,.02.02.05.05.07s.04.06.04.11c0,.06,0,.12-.05.2,0,.04,0,.07.02.1s.03.06.05.1c0,.04-.02.07-.05.09s-.05.03-.07.05v.23c0,.05-.02.09-.05.12.02.02.04.04.06.08s.02.08-.01.12c.02.02.05.05.09.06s.06.05.07.09c0,.07-.03.1-.09.11,0,.06,0,.09,0,.11s-.02.03-.02.04c.02.04.03.1.03.17s-.01.12-.06.14c0,.07,0,.12.02.12s.01.02,0,.04c-.02.04-.04.07-.07.08s-.06.04-.07.07-.02.07-.01.11,0,.07-.01.11c.02.08.05.13.07.15s.04.04.06.06c0,.04,0,.1.01.19-.04.06-.06.12-.06.19s-.02.13-.05.19c.02.08.03.12.04.12s.03,0,.04.02c0,.06-.03.1-.09.11s-.1,0-.11-.06c-.04,0-.08.02-.11.04s-.07.02-.11,0c-.1.03-.17.03-.2-.01-.02,0-.04.02-.08.05s-.07.03-.11.02c-.07-.03-.12-.04-.16-.03s-.07.02-.11.03-.07.01-.1,0-.06-.02-.08-.06c.02-.05.02-.09,0-.13s-.03-.09,0-.16c-.05-.06-.07-.1-.07-.12s0-.04,0-.07c-.02,0-.05-.01-.08-.01s-.05-.02-.06-.05c0-.08-.04-.13-.09-.15-.02-.04-.04-.09-.05-.14s-.02-.11-.04-.16c-.11-.06-.14-.12-.09-.19-.02-.02-.03-.04-.03-.07s-.01-.06-.03-.09c-.05-.11-.09-.19-.12-.24-.11-.06-.18-.1-.21-.14-.02-.04-.02-.08,0-.11s.02-.07,0-.12c-.06-.07-.09-.12-.1-.17s-.03-.09-.06-.12c-.1-.11-.14-.22-.11-.35-.07-.07-.11-.12-.14-.14s-.04-.05-.04-.09c.02-.04.05-.05.09-.02s.06.05.07.06c.03-.12.02-.17-.02-.17s-.08-.02-.1-.07c-.02-.07-.05-.11-.09-.12s-.06-.03-.07-.06c-.02-.04-.04-.1-.04-.17s0-.13.02-.18c-.07-.08-.1-.14-.09-.18s.02-.07.04-.09c-.02-.04-.05-.06-.09-.07s-.06-.04-.05-.09h-.11s-.06,0-.07-.02c0,.05,0,.08.02.09s.04.04.05.08c-.02.09-.03.14-.01.16s.02.04.02.07c-.02.03-.04.06-.06.07s-.04.03-.06.05c0,.07,0,.13.03.17s.04.1.02.16c0,.03.02.07.04.1s.03.07.04.11,0,.08,0,.11,0,.07.01.1c-.03.02-.05.07-.05.14s.02.12.05.14c.05.02.1.03.16.04s.07.05.06.12c-.03.04-.07.08-.12.11s-.08.08-.09.16c0,.1-.01.17-.01.2v.14s-.05.05-.07.06-.05.04-.06.06c.02.11.05.17.06.18s.03.03.04.06c0,.12-.02.2-.04.25,0,.15.03.26.06.33s.07.13.12.17c0,.04,0,.07-.02.1s-.03.05-.05.07c0,.03.02.07.05.12s.01.08-.04.1c-.07-.02-.14-.04-.19-.03s-.08.01-.1.03c0,.11,0,.18.01.2s0,.06-.01.09c-.02.02-.05.02-.08.01s-.06,0-.09,0c-.02.06-.04.11-.07.16s-.07.08-.13.1c0,.04-.02.07-.04.09s-.03.05-.02.1c-.02.02-.05.03-.07.05s-.05.02-.09.02c.02.07,0,.13-.04.18s-.08.05-.12-.02c-.02.02-.04.04-.05.06s-.02.05-.04.06c-.02.06-.03.1-.04.13s-.02.06-.02.11c-.04.02-.07.06-.07.11s-.03.09-.07.12c-.06-.03-.09-.06-.11-.07s-.02-.04-.03-.07c0-.02.03-.05.06-.07s.03-.06-.01-.1c.03-.08.04-.13.03-.14s-.02-.02-.02-.05c.02-.1.03-.15.02-.16,0-.16.02-.28.07-.37,0-.07,0-.1,0-.11s.01-.02.01-.04c-.02-.04-.03-.07-.05-.1s-.02-.06-.02-.1c0-.06,0-.11.01-.15s.04-.08.06-.12c-.02-.1-.05-.16-.06-.17s-.02-.05-.01-.09c.02-.07.04-.11.05-.13s.02-.04.02-.06c0-.05-.02-.09-.05-.11s-.03-.06-.02-.12c.02-.07.01-.1-.01-.11s-.03-.03-.02-.06c.06-.08.08-.13.07-.16s0-.05,0-.09c-.07-.11-.1-.17-.07-.19s.06-.05.08-.08c-.02-.02-.04-.05-.06-.09s-.02-.08,0-.14c-.02-.02-.04-.03-.06-.04s-.04-.03-.05-.06c.02-.07.06-.12.09-.16s.07-.09.11-.15c-.02-.02-.04-.04-.07-.06s-.04-.04-.03-.09c0-.03.02-.06.04-.07s.03-.03.05-.04c-.03-.05-.03-.09,0-.13s.05-.09.04-.14c.05-.05.1-.08.14-.09-.02-.04-.03-.08-.04-.12s-.01-.09,0-.15c-.02-.05-.06-.09-.11-.12s-.08-.09-.09-.16c.07-.1.11-.19.1-.29.02-.1.01-.17-.03-.22s-.04-.09,0-.13c-.02-.04-.03-.09-.04-.15s0-.11.04-.15c0-.02-.02-.05-.03-.06s-.01-.05,0-.09l-.05-.05-.05-.05c-.02-.07,0-.11.03-.13s.06-.05.08-.09c0-.04,0-.08.02-.12s.02-.08,0-.13c0-.1,0-.16-.02-.17s-.04-.04-.04-.07c0-.04,0-.07.03-.08s.06-.03.09-.06c-.02-.07-.03-.14-.04-.22s.01-.13.07-.17c-.05-.07-.09-.1-.11-.11s-.04-.02-.06-.05c0-.09-.03-.14-.07-.16s-.06-.04-.08-.07c.02-.05.01-.09,0-.12s-.04-.06-.04-.11c-.04,0-.09.01-.14,0s-.07-.03-.07-.08c.02-.08.02-.13-.02-.14s-.06-.05-.05-.11c-.08-.02-.13-.05-.14-.1-.04-.02-.08-.03-.12-.04s-.06-.03-.08-.06c0-.07-.02-.12-.04-.12s-.03-.03-.03-.06c0-.04,0-.06.05-.07s.08-.01.12-.03c.06,0,.09,0,.1.01s.02.02.04.02c.08,0,.16,0,.23,0s.14,0,.2-.02c.11.03.19.04.24.01s.12-.04.19-.05c.09.02.16.03.2.02s.08,0,.09.05c.07,0,.13-.02.18-.02s.1-.02.14-.04c.06,0,.11,0,.16-.01s.1-.02.16-.02c.02.07.03.11,0,.12s-.04.03-.04.06c.14.04.24.06.3.06,0,.04-.03.06-.07.07s-.06.03-.06.07c0,.02.02.04.05.04s.05,0,.07,0,.05,0,.06.01.02.02.02.05c-.02.07-.03.11-.01.12s.03.04.05.06c0,.07.02.13.03.18s0,.1-.03.14c.04.03.09.06.14.07s.1.04.13.08c.02.03.03.07.03.12s-.01.08-.04.1c.02.07.03.12.02.12s-.01.02-.01.04c0,.02.01.05.01.09s0,.07.01.11c.12.09.19.19.24.29,0,.07.03.12.06.14s.06.04.07.07c-.02.04-.01.07.01.09s.03.05.01.09c.03.02.07.04.1.06s.05.04.06.09c0,.07.02.11.05.12s.04.04.05.07c.04.09.06.15.06.17s-.01.05-.02.07c.08.05.12.09.12.12s0,.06-.02.09-.03.07-.05.1-.02.07-.02.1c.07,0,.12.02.14.05,0,.05-.01.1-.02.16s.01.1.06.14c.09.02.13.06.12.1.02.02.05.03.07.04s.04.03.05.07c-.02.09-.03.14-.01.15s.03.02.04.04c.02.02.02.04.02.06s0,.05.01.07c.04-.02.06-.04.05-.07s-.02-.07-.02-.11c.04-.11.04-.17,0-.19s-.05-.06-.04-.12c.02-.09.05-.16.09-.19s.05-.08.06-.12c0-.03,0-.06-.02-.09s-.02-.06-.02-.08c-.02-.02-.05-.05-.08-.07s-.05-.05-.07-.09v-.2c0-.13.02-.23.05-.28s.06-.1.1-.13c-.03-.1-.04-.15-.02-.16s.04-.01.04-.03c-.02-.03-.04-.05-.06-.06s-.05-.01-.06-.03c-.02-.05-.03-.1,0-.16s.05-.1.09-.11c-.07-.09-.12-.15-.15-.19s-.05-.08-.04-.15c0-.04.03-.07.07-.09s.08-.04.12-.06c-.02-.04-.06-.07-.12-.09s-.08-.07-.06-.14c.04-.08.06-.13.04-.14s-.01-.04,0-.07c0-.03,0-.06.02-.07s.03-.03.04-.05c0-.04,0-.08,0-.11s-.02-.06-.04-.09c0-.1-.01-.16-.03-.19s-.02-.06,0-.11c-.06-.07-.08-.11-.07-.14s.01-.06.01-.09c.08-.11.16-.18.23-.2s.13-.02.19.02c.03,0,.06-.02.08-.02s.05-.02.08-.02c.08.07.15.09.19.07s.08-.04.11-.06c.09,0,.16-.02.19-.03s.08-.01.13,0c.08.03.14.05.17.06s.07,0,.11-.02c.04.02.09.02.14.01s.09-.02.12-.04c.07.03.14.04.21.02s.13-.04.19-.06c.07.02.12.03.14.02s.04-.02.07-.02Z"/>
      <path class="cls-7" d="M49.96,17.02c.02.07.03.12.05.16,0,.12-.01.23-.04.34s-.02.21.01.3c-.03.07-.07.12-.12.17s-.09.1-.14.15c0,.03,0,.07,0,.1s0,.06,0,.09c0,.04-.02.07-.04.09s-.04.04-.06.07l-.12.15c-.04.1-.07.16-.09.17s-.05.02-.09.02c-.04.07-.06.16-.06.27-.07.06-.12.1-.15.11s-.06.03-.1.05c-.02.02-.05.04-.06.06s-.05.04-.09.05c-.02.03-.05.07-.07.1s-.05.07-.07.11c-.07,0-.12,0-.12,0s-.02-.02-.05-.02c-.08.05-.14.1-.19.14-.02,0-.04.01-.06.02s-.05.01-.07.03c-.03,0-.06-.01-.07,0s-.04,0-.06,0c-.12,0-.19,0-.24,0s-.08-.03-.12-.04c-.03.02-.06.04-.07.06s-.05.04-.1.06c-.03,0-.06-.02-.09-.02s-.05-.02-.09-.02c-.1-.06-.17-.08-.22-.07s-.1.01-.16,0c-.02-.04-.04-.07-.06-.09s-.05-.04-.07-.07c-.02,0-.05,0-.07,0s-.04,0-.07,0c-.04-.04-.1-.06-.17-.05s-.12,0-.16-.05c-.06-.07-.11-.11-.14-.1s-.08,0-.13,0c-.07-.03-.11-.08-.14-.14s-.07-.11-.14-.14c-.02-.08-.03-.13-.02-.14s.01-.03.01-.06c-.02,0-.04-.01-.07,0s-.06,0-.08,0c-.03-.03-.07-.06-.11-.09s-.07-.06-.09-.11c0-.03,0-.06.02-.08s.03-.04.04-.07c-.07-.04-.11-.07-.11-.09s0-.03,0-.05c-.05-.12-.08-.21-.1-.27-.06,0-.09-.02-.09-.04s0-.03-.02-.05c.03-.02.06-.02.09-.02s.05,0,.09-.02c0-.09,0-.14,0-.16.02-.05.06-.08.11-.09s.09-.03.12-.07c0-.12.04-.17.09-.17s.1-.01.14-.04c.02-.09.05-.14.07-.14s.05-.01.07-.03c.07-.12.14-.2.2-.25s.12-.12.18-.2c.04-.02.1-.04.17-.07s.13-.04.17-.03c.03.02.04.04.03.06s-.01.05,0,.07c-.05.09-.08.14-.09.16s-.02.03-.04.05c0,.02,0,.05,0,.08s0,.06-.01.09c.07.02.1.06.1.1-.02.03-.03.06-.04.07s-.03.04-.04.08c0,.05,0,.12.01.2-.02.06-.02.11,0,.15s.05.09.06.15c0,.03,0,.06-.01.08s-.01.04-.01.07c.02.04.04.07.07.1s.05.06.07.1c0,.02-.02.05-.03.07s-.02.05-.02.09c.04.02.08,0,.12-.02s.08-.04.12-.01c.02.07.04.09.07.05s.07-.04.11,0c.02.03.02.06,0,.07s-.02.04-.02.06c0,.03.02.05.04.06s.04.02.07.04c.04,0,.07-.01.09-.03s.05-.03.09-.03c.04,0,.08.02.11.04s.07.02.13.01c.07-.03.12-.05.13-.06s.03-.02.04-.02c.04-.03.08-.06.11-.09s.07-.05.11-.09c.06,0,.09,0,.1,0s.02.02.04.02c.02-.02.03-.04.04-.06s.03-.05.04-.06c.05,0,.1-.02.15-.04.02-.03.02-.07.02-.12s0-.1.02-.14c.07-.12.12-.19.12-.21,0-.07,0-.12,0-.17s.01-.1,0-.17c.07-.07.11-.14.11-.19s0-.1,0-.14c0-.02-.03-.04-.06-.04s-.06-.01-.07-.03c-.02-.04-.02-.07,0-.1s.02-.06.02-.1c-.02-.03-.04-.06-.06-.09l-.07-.07s-.07,0-.1-.02-.05-.02-.07-.03c-.02-.05-.04-.09-.08-.12s-.08-.06-.12-.11c-.04,0-.08,0-.11,0s-.07-.01-.11,0c-.03-.03-.07-.06-.11-.09s-.08-.06-.11-.1c-.04-.02-.07-.02-.1-.01s-.05.02-.09.02c-.02,0-.05.01-.08,0s-.06,0-.08,0c-.11-.1-.2-.16-.29-.19s-.16-.06-.23-.1c-.06-.14-.13-.21-.22-.21-.05-.02-.09-.04-.12-.07s-.08-.05-.14-.06c-.06-.06-.12-.11-.2-.16-.07-.09-.14-.17-.19-.24-.04-.08-.08-.14-.11-.18s-.06-.08-.09-.12c-.05-.05-.08-.1-.09-.16-.02-.14-.03-.25,0-.33s.05-.15.08-.22c0-.08.01-.16,0-.24s.01-.14.04-.19c.04-.19.08-.34.12-.43s.11-.17.23-.2c.04-.07.08-.13.12-.2s.09-.12.16-.16c.11-.04.18-.08.22-.12s.08-.09.12-.14c.07-.02.12-.04.16-.08s.09-.07.14-.11c.04,0,.08.02.11.02s.06.02.09.02c.04-.02.08-.05.12-.08s.09-.05.16-.07c.05.06.09.08.11.07s.05,0,.06.01c.04-.02.08-.03.12-.05s.08-.02.13-.02c.04.02.07.04.09.07s.04.06.06.08c.07,0,.12-.03.15-.06s.08-.06.15-.07c.03.02.06.04.08.06s.05.04.09.04c.03,0,.06,0,.08-.02s.05-.01.08,0c.09.06.14.14.16.24h.16s.03.05.05.09.04.06.06.09c.04,0,.08.02.11.02s.06.03.07.07c0,.08.01.12.04.12s.05,0,.06.02c.06.05.1.08.12.08s.05,0,.06,0c.02.04.03.09.03.13s.01.09.02.13c.05.04.07.08.07.12-.04.02-.09.06-.15.12s-.08.12-.06.16l-.07.2c-.04.08-.08.14-.11.17s-.07.05-.1.07c0,.1-.06.17-.15.21l-.09.15s-.08.09-.12.13-.07.1-.07.17c-.02.02-.05.03-.07.04s-.06.01-.1,0c-.02-.02-.03-.05-.03-.08s0-.06.03-.11c0-.09.01-.15.04-.18s.04-.06.04-.09c-.08-.05-.13-.08-.14-.08s-.02-.01-.02-.03c0-.04,0-.07.02-.09s.01-.05,0-.09c0-.07,0-.12.01-.17-.04-.02-.07-.04-.07-.07s-.02-.07-.02-.1c-.04-.07-.05-.11-.03-.13s.03-.05.02-.09c-.12-.03-.21-.07-.25-.1s-.09-.07-.15-.1c-.04,0-.07,0-.1.01s-.06.01-.1.01c-.04-.02-.06-.06-.06-.14-.08.07-.13.11-.15.12s-.04.03-.07.04c-.12-.04-.19-.05-.23-.02s-.08.05-.12.06c-.06.06-.1.12-.11.19,0,.07,0,.13.01.17-.02.02-.04.05-.06.07s-.06.03-.11.02c-.02.05-.02.11-.02.18s.01.13.03.17c-.02.06-.02.09-.01.11s.02.03.02.04c-.02.06-.02.12.01.17s.04.12.01.17c.06.03.12.06.17.07s.09.06.1.14c.04.02.09.04.14.04s.1.01.14.04c.02.05.05.09.1.11s.08.06.1.11c.12,0,.2,0,.25.02s.12.01.19,0c.07.02.13.04.18.07s.11.07.17.1c.03,0,.06-.02.08-.02s.04-.01.06-.01c.05,0,.09.02.11.06s.05.07.07.09c.05,0,.09.01.11.04s.05.04.09.05c.06.1.12.16.19.18s.13.05.19.09c.04.05.07.1.1.16s.05.13.06.22c.03.04.07.08.11.12s.06.09.06.14c.02.11.03.18.02.21s-.02.07-.04.11c.02.02.04.03.07.03s.05.01.07.03Z"/>
      <path class="cls-7" d="M60.29,17.21s.03.05.04.07,0,.05,0,.09c0,.1-.01.17-.01.21s0,.08.01.11c0,.03-.02.06-.04.08s-.03.05-.05.08v.19c0,.06-.02.12-.05.17-.08.02-.13.05-.14.09,0,.02,0,.05,0,.07s.02.05.02.06c0,.05-.03.1-.06.14s-.06.09-.09.12c.02.04.03.08.02.12s-.03.07-.07.09c-.03.1-.05.15-.04.16s.01.01.01.03c-.02.04-.06.08-.12.11l-.06.06s-.06.04-.1.05c-.04.04-.08.09-.12.13s-.09.08-.14.11c-.02,0-.05.01-.07,0s-.04,0-.07,0c-.03.02-.07.05-.1.09s-.07.05-.11.04c-.09.07-.16.12-.21.15-.16.06-.29.06-.39,0-.09.07-.18.11-.27.09s-.16-.03-.21-.06c-.14-.04-.26-.05-.35-.02s-.18.05-.27.07c-.07,0-.14-.01-.2-.04-.05.02-.1.02-.15.02s-.1,0-.15.02c-.03,0-.07-.01-.1-.01h-.11c-.14-.04-.23-.05-.27-.02s-.1.04-.16.05c-.02-.02-.04-.04-.06-.06s-.03-.04-.06-.06c-.04,0-.07,0-.09.02s-.04.03-.07.04c-.03,0-.06,0-.09.01s-.07.01-.12.01c-.11-.04-.19-.05-.26-.01-.06.06-.11.09-.16.1s-.1.02-.15.04c-.07-.02-.11-.03-.14-.05-.04.02-.08.04-.11.07s-.08.04-.14.02c-.07-.07-.12-.1-.17-.07s-.1.03-.16,0c-.02-.07-.03-.12-.05-.15.02-.02.04-.03.06-.05s.04-.04.04-.06l.17-.05s.06-.04.09-.06.06-.04.1-.05c.02-.02.04-.05.06-.08s.04-.06.06-.08c0-.08.02-.14.05-.17-.02-.03-.03-.06-.03-.08s0-.05,0-.09c.08-.09.13-.2.14-.34,0-.02-.02-.05-.03-.06s-.02-.04-.03-.06c0-.07.01-.12.04-.17s.04-.11.02-.17c0-.11.03-.18.06-.23s.04-.1.02-.16c-.02-.02-.06-.02-.09,0s-.06,0-.08-.03c0-.05.01-.09.04-.12s.05-.06.06-.09c-.02-.06-.03-.1,0-.14s.03-.07.02-.1c0-.11,0-.18.02-.23s.02-.1,0-.17c0-.06,0-.09,0-.1s-.01-.02-.01-.04c.03-.02.05-.05.04-.09s0-.07,0-.11c0-.02-.02-.05-.03-.06s-.02-.04-.03-.06c.02-.09.04-.15.03-.17s0-.05.03-.07c-.03-.09-.05-.15-.04-.19s0-.06-.02-.07c.02-.04.03-.09.04-.15s.02-.11.04-.15c0-.08,0-.13,0-.14s-.01-.02-.01-.04c.02-.06.02-.09-.02-.09s-.06-.01-.08-.04c0-.09,0-.16,0-.19s0-.07-.01-.09c.02-.08.02-.13.01-.13s-.01-.01-.01-.03c.02-.04.03-.08.05-.12s.03-.09.04-.16c0-.05-.03-.09-.06-.11s-.04-.06-.03-.13c0-.02.02-.05.02-.07s.01-.05.01-.08c-.03-.1-.04-.16-.02-.17s.03-.03.05-.06c-.02-.04-.03-.09-.05-.14s-.01-.1.01-.14c0-.04-.02-.07-.04-.09s-.04-.05-.04-.09c.05-.08.08-.13.09-.15s.02-.04.03-.06c-.02-.07-.02-.12,0-.17s.04-.1.06-.14c-.06-.14-.08-.24-.06-.29s.02-.12.01-.19c0-.1,0-.18-.01-.23s0-.1.04-.13c-.05-.11-.07-.18-.06-.23s0-.1,0-.17c-.02-.04-.05-.08-.07-.12s-.04-.08-.07-.12c-.02-.02-.03-.04-.05-.06s-.03-.04-.04-.08c-.04,0-.07,0-.1-.01s-.06-.02-.1-.02c-.02-.07-.07-.11-.12-.14s-.12-.05-.2-.07c-.08,0-.13-.04-.15-.1s-.04-.11-.07-.16c.05-.06.07-.1.06-.11s0-.02.01-.02c.03,0,.06,0,.08,0s.04,0,.07-.01c.04.04.1.05.17.04s.13-.02.19-.02c.03-.03.09-.05.16-.05s.13.01.18.04c.05,0,.09,0,.13-.01s.08-.02.12-.02c.03,0,.06.02.07.03s.04.03.06.04c.07,0,.12-.01.17-.04s.11-.03.17-.01c.08-.02.18-.03.29-.02s.2.02.29.04c.03,0,.07-.01.12-.01h.16s.08-.04.11-.06.06-.04.11-.06c.12.05.18.07.2.06s.05-.02.09-.03c.13.02.23.03.29.02s.12-.02.19-.02c.07,0,.13,0,.17.01s.07.02.11.02c.05,0,.1-.01.16,0s.11.01.15.03c.04.05.09.07.13.07s.06.01.06.06c.11,0,.17,0,.19.03s.04.06.07.09c.05,0,.1.02.14.02s.07.02.1.05c.07,0,.13.04.16.09.02.08.05.13.09.14s.06.04.07.07c.16,0,.27.06.34.19,0,.04,0,.07.01.09s.02.05.02.09c0,.02,0,.05,0,.07s0,.05,0,.09c.02.04.05.07.1.09s.09.06.11.11c0,.04-.02.07-.03.09s-.03.04-.04.07c.02.02.04.04.06.05s.04.02.06.04c.02.04.02.08,0,.12s-.01.08,0,.12c-.02.07-.02.11,0,.12s.03.03.05.04c0,.07,0,.13-.01.16,0,.03.02.06.03.08s.02.04.03.07l-.05.21c-.02.17-.06.31-.1.4,0,.05,0,.1,0,.14s-.02.08-.04.12-.04.08-.06.12-.04.08-.06.12c-.03.09-.07.2-.1.34-.02.02-.05.02-.07,0s-.04-.02-.07-.02c-.04.02-.07.06-.09.11s-.03.1-.05.16c-.07.04-.12.08-.16.12s-.1.07-.19.09c.04,0,.08,0,.11-.01s.07-.03.1-.05c.04,0,.07.01.1.04s.05.05.07.07c.04.02.09.02.14.02s.09.02.11.06c0,.02,0,.05,0,.06s-.02.04-.02.07c.06.02.09.03.09.04s.01.03.02.04c.02.02.06.05.09.06s.06.05.08.09c0,.1.02.17.05.21.05.02.09.04.12.07s.07.05.13.06c.02.07.04.13.06.19s.04.12.07.17c-.02.12-.01.2.01.23s.04.06.04.11c.02.09.04.15.07.17s.04.07.03.15c-.02.07-.02.13-.01.16s0,.07,0,.12ZM58.6,17.85c.09-.02.15-.07.19-.15s.06-.15.09-.24c0-.02-.02-.05-.02-.09s-.02-.06-.04-.07c0-.07,0-.11.02-.14-.02-.22-.08-.4-.19-.52-.03-.06-.04-.12-.02-.2s0-.14-.04-.2c-.09-.06-.16-.1-.2-.12s-.06-.07-.06-.15c-.02-.02-.04-.04-.06-.06s-.05-.05-.06-.08c-.03-.02-.08-.02-.14-.01s-.1-.01-.11-.06c-.02-.04-.05-.05-.11-.03s-.11.03-.16.02c-.02-.02-.06-.02-.09-.01s-.07.01-.09.01c-.04.02-.09.02-.14,0-.06,0-.11-.01-.14-.03s-.06-.04-.08-.06c-.07.04-.14.06-.21.06-.04-.02-.09-.03-.14-.01s-.1.02-.15.01c-.07-.04-.14-.05-.21-.01,0,.02.02.04.04.06s.03.04.05.07c0,.06-.01.1-.04.13s-.04.06-.05.11c.02.03.02.07.02.11s-.01.07-.04.1c.02.09.02.16-.02.2l.06.25s.01.06.02.1,0,.07-.02.1c0,.04.01.08.01.12v.13c.02.08.05.13.06.13s.03.01.04.03c0,.04.01.08,0,.11s0,.07,0,.1c.04.08.04.16,0,.22s-.08.13-.12.19c.03.04.04.1.02.17,0,.02.02.05.03.07s.02.04.03.06c0,.02,0,.06,0,.09s-.01.08-.01.12c.02.03.03.06.05.08s.02.05.02.09c.07-.02.12-.01.15.01s.07.05.12.06c.04-.02.07-.04.09-.06s.05-.04.09-.04.07.01.1.03.06.03.1.03c.08.04.14.05.16.02s.05-.04.09-.05c.02,0,.05,0,.07.01s.04.02.07.02c.12-.03.2-.04.22-.03s.04.02.07.03c.04-.04.09-.08.15-.12s.12-.04.19,0c.07-.02.12-.05.16-.11s.07-.11.11-.17c.04-.08.07-.14.08-.19s.02-.08.02-.12c-.02-.05-.02-.1-.01-.14ZM56.44,12.69s0,.08-.01.11-.02.07-.02.11c.02.14.05.23.07.27s.05.09.06.14c-.02.08-.02.13-.02.13s0,.01,0,.03c-.02.16-.03.3-.01.43s.04.26.06.39c-.02.07-.03.11-.04.14.05.02.1.03.14.04s.09.03.13.06c.06-.02.11-.02.16,0,.04-.02.08-.05.11-.07s.08-.04.14-.05c.04,0,.07.02.09.04s.04.04.07.06c.08-.03.19-.06.32-.07.02-.02.04-.05.07-.07s.07-.04.1-.06c0-.08.04-.13.08-.14s.08-.03.09-.07c0-.04,0-.06-.03-.06s-.04-.02-.04-.06c.02-.05.07-.08.13-.09s.11-.03.13-.07c.02-.1.04-.16.04-.18s0-.04-.01-.06c.06-.11.09-.18.11-.23s.03-.09.04-.13c0-.06,0-.11,0-.14s.02-.08.02-.12c-.03-.04-.06-.09-.09-.13s-.06-.09-.1-.12c-.03-.04-.03-.1,0-.19-.02-.02-.04-.04-.07-.04s-.07-.01-.1-.03c-.06-.06-.09-.09-.1-.09s-.02,0-.04-.01c-.05-.08-.08-.13-.08-.14s-.01-.02-.03-.02c-.07.08-.13.11-.16.08s-.08-.04-.14-.04c-.11-.04-.18-.07-.21-.08s-.06-.04-.09-.07c-.06,0-.09,0-.11-.05s-.04-.07-.08-.07c-.03,0-.06,0-.09.02s-.05.02-.09.02c-.11,0-.17,0-.19.01s-.03.02-.05.02c-.02.05-.04.09-.06.12s-.05.06-.09.11c.02.03.02.06.01.09s-.02.05-.02.07c.02.02.03.05.04.06s.02.04.03.07c-.02.02-.04.05-.06.07l-.06.06Z"/>
      <path class="cls-7" d="M66.64,12.4c.07.02.09.06.06.12-.04.02-.09.04-.14.04-.14.06-.23.1-.27.13s-.09.05-.16.06c-.08,0-.12.02-.12.03s0,.03-.01.04c-.07.02-.14.05-.19.09s-.07.1-.06.19c-.03.06-.07.1-.12.14-.03.07-.06.12-.07.15-.07.04-.11.1-.14.16s-.07.12-.12.17c-.04.09-.08.18-.11.28s-.07.18-.13.27c0,.02-.02.05-.02.07s-.01.04-.01.07c-.02.02-.05.06-.09.11,0,.04-.01.09-.01.14s0,.1-.02.16c-.07.02-.11.05-.11.07s0,.04,0,.06c0,.05,0,.09-.02.12s-.03.07-.04.11c-.06.08-.12.15-.17.2,0,.07,0,.11-.05.14s-.07.06-.1.11c-.02.06-.04.1-.06.13s-.04.07-.06.13c-.02.1-.05.15-.07.14s-.04,0-.04.02c.02.11.01.16-.01.16-.02.07-.05.12-.07.17s-.05.09-.09.14c.07.07.11.1.12.09s.02,0,.03,0c.02.08,0,.14-.06.18s-.1.09-.11.16c.02.12.01.19,0,.22s-.04.06-.06.11c.02.05.03.1.04.15s.01.1,0,.16c.03.1.05.2.04.3,0,.1,0,.17,0,.2s-.03.06-.06.08c.02.03.02.07.01.12s-.02.08-.05.09c.02.02.03.03.05.04s.02.04.02.08c-.02.08-.02.14-.01.17s0,.07,0,.11v.16c0,.06,0,.11-.01.15,0,.11,0,.19-.01.24s0,.11.01.16c0,.04-.01.07-.04.09s-.03.05-.01.09c.07.07.09.1.06.11s-.06.03-.06.07c-.09-.02-.12-.05-.1-.07s.03-.04.01-.06c-.03-.02-.06-.01-.09,0s-.05.03-.09.03l-.2-.05s-.06.01-.11.02-.08.01-.11.02c-.12.03-.17.05-.16.04s-.02,0-.1.02-.11.02-.12,0-.01-.03-.02-.05c-.07,0-.12,0-.17.02s-.09.02-.14,0c-.06-.08-.12-.1-.18-.06s-.13.06-.2.05c-.07-.08-.14-.12-.2-.1s-.11.03-.16.05c-.06-.03-.07-.08-.05-.14.07-.04.13-.08.19-.11s.11-.02.16.02c.04-.02.08-.04.11-.06s.07-.05.11-.06c.03-.05.07-.1.11-.14s.1-.07.16-.09c.02-.07.04-.13.08-.18s.06-.11.08-.18c0-.07-.01-.13-.02-.2s-.03-.12-.07-.16c.02-.21.06-.39.12-.55,0-.1-.02-.18-.06-.24s-.04-.14,0-.23c0-.04-.01-.07,0-.09s.01-.04.02-.06l.05-.05s.03-.04.04-.06c-.08-.05-.13-.08-.14-.08s0-.01,0-.03c0-.04.01-.06.04-.07s.04-.02.05-.04c0-.05-.01-.08-.04-.09s-.05-.03-.06-.06-.03-.05-.04-.07-.03-.05-.04-.07c0-.07,0-.14-.04-.19s-.07-.1-.12-.14c0-.02-.01-.05-.02-.07s0-.04,0-.07c-.08-.08-.12-.14-.11-.17s.03-.07.04-.1c-.02-.05-.06-.1-.13-.14s-.11-.1-.12-.16c-.05-.08-.09-.13-.11-.16s-.04-.05-.05-.08,0-.06,0-.09.02-.06.02-.08c0-.02-.02-.05-.04-.07s-.03-.04-.03-.07c.02-.04.03-.09.04-.14s0-.1,0-.14c-.02-.03-.04-.06-.07-.08s-.06-.04-.09-.06-.05-.05-.07-.07-.03-.07-.02-.13c-.02-.02-.03-.04-.04-.06s-.03-.03-.04-.06c0-.06,0-.1-.01-.12s-.03-.05-.05-.09c-.08-.06-.13-.11-.13-.17s-.01-.11-.02-.17c0-.02-.02-.05-.04-.07s-.02-.06-.02-.1c-.18-.08-.29-.17-.32-.27-.12,0-.16-.05-.14-.15-.09-.06-.14-.1-.14-.12s-.01-.05-.03-.09c-.04-.03-.09-.05-.14-.06l-.12-.07c-.07,0-.13-.02-.17-.05s-.09-.05-.16-.05c-.05-.03-.09-.06-.12-.07-.07,0-.11-.01-.14-.04-.02-.06,0-.1.06-.14.06,0,.11,0,.17.02s.11.03.16.04c.16-.07.27-.1.34-.11.14.02.25.04.32.04.09-.02.17-.02.24,0s.14.04.21.05c.06-.02.12-.02.18-.02s.11.02.16.05c.08-.02.16-.04.23-.06s.16-.03.28-.01c.09.03.14.05.16.05s.02,0,.02.02c-.05.07-.07.11-.06.12s.01.03.01.04c0,.05,0,.09.01.11s.02.06.02.1c.07.09.12.14.12.15,0,.1.02.15.05.16s.05,0,.07,0c.03.1.04.16.02.17s-.03.03-.04.06c0,.03.02.06.02.08s.01.05.01.09c.04.04.07.07.09.09s.03.04.05.06c.07.05.1.08.09.09s-.03.03-.04.04c.02.03.04.06.06.09s.04.06.05.1c.02.02.05.07.09.14.04.12.05.18.04.2s-.02.03-.02.05c.09.06.13.1.13.11s0,.03,0,.05c.02.07.04.12.03.12s0,.02,0,.04c.02.04.04.08.07.11s.06.06.09.08c.02,0,.05-.02.06-.04s.04-.02.06-.02c.03-.04.06-.09.08-.14s.04-.11.07-.16c.07-.07.11-.13.14-.18s.04-.12.04-.2c.07-.08.12-.13.12-.15,0-.06,0-.1.02-.13s.02-.07.02-.12c.05-.06.07-.1.07-.13s0-.05.02-.07c0-.03,0-.07,0-.11s.02-.07.02-.11c.02-.02.04-.05.07-.06s.05-.05.07-.09c-.02-.07-.02-.14,0-.21s.05-.12.1-.15c-.02-.04-.01-.07.01-.1s.03-.06.01-.1c.02-.04.05-.08.08-.12s.04-.09.03-.16c.04,0,.08-.02.12-.02s.09-.02.14-.04c.07.02.14.03.2,0s.12-.04.18-.07c.02.02.05.03.07.05s.05.03.08.04c.07,0,.13-.02.2-.04s.14-.02.22,0c.11-.02.18-.03.21-.05h.14c.08.02.14.05.19.09.04,0,.07,0,.09,0s.03.01.05.02c.06-.02.11-.03.16-.04s.1-.01.16-.01Z"/>
      <g>
        <path class="cls-7" d="M31.47,46.62c-.05.05-.12.07-.2.06-.09-.01-.17-.03-.24-.06.05.07.12.19.2.34.09.15.17.3.24.47.07.16.14.32.2.48.06.16.11.29.13.39-.15.07-.32.09-.52.04-.07.12-.07.31.02.56.09.25.15.43.2.56,0,.15-.09.26-.26.34-.07.27-.11.45-.11.52s.02.15.07.22c.17.27.27.45.3.54.02.09.01.17-.04.24-.1.05-.2.07-.32.07s-.22.01-.32.04c-.1-.05-.18-.09-.24-.13-.06-.04-.19-.07-.39-.09,0,.2-.14.32-.41.37-.17.25-.29.4-.35.47-.06.06-.12.12-.17.17.05.07.11.13.17.17.06.04.11.12.13.24-.12.15-.26.21-.41.19-.15-.02-.3,0-.45.07,0,.07,0,.14.02.2.01.06,0,.13-.06.2-.17.17-.32.32-.45.45-.02.12-.03.25-.02.37.01.12-.03.22-.13.3-.05.27-.11.41-.17.41s-.11.04-.13.11c.22.35.25.56.07.63-.3.15-.45.14-.45-.02s-.01-.3-.04-.43c-.2-.25-.28-.4-.24-.47.04-.06.07-.12.09-.17,0-.47.07-.78.22-.93-.15-.17-.23-.27-.24-.28-.01-.01-.02-.03-.02-.06.1-.27.15-.44.15-.5s-.02-.13-.07-.2c.05-.2.07-.36.07-.48.1-.12.22-.23.37-.32.15-.09.19-.2.11-.35-.22-.15-.34-.24-.35-.26-.01-.02-.02-.05-.02-.07-.05-.35-.05-.61,0-.8.05-.19.05-.34,0-.47,0-.12.05-.28.15-.47.1-.19.14-.3.11-.35-.12-.15-.22-.26-.3-.34.02.2-.02.34-.15.41-.12.07-.21.05-.26-.07-.05.05-.09.15-.11.3-.02.15-.06.2-.11.15-.17.17-.26.3-.26.39s-.02.16-.07.2c-.15.42-.3.67-.45.73-.15.06-.32.07-.52.02-.17.05-.3.12-.39.22-.09.1-.22.17-.39.22-.05.05-.09.11-.13.19s-.12.11-.24.11c-.17.15-.3.23-.39.24-.09.01-.17,0-.24-.02-.15.1-.27.15-.35.15s-.16-.02-.2-.07c-.2.1-.39.15-.56.15-.25-.05-.39-.06-.41-.02-.02.04-.06.07-.11.09-.12.02-.2,0-.22-.07-.02-.07-.09-.12-.19-.15l-.34.3c-.05-.07-.11-.14-.17-.19-.06-.05-.13-.1-.2-.15-.2.05-.35.02-.47-.07-.11-.1-.23-.2-.35-.3-.32.02-.53,0-.63-.07-.1-.07-.26-.1-.48-.07-.1-.05-.19-.12-.28-.2-.09-.09-.18-.17-.28-.24-.22-.02-.39-.17-.48-.45-.55-.35-.89-.61-1.04-.78-.2-.1-.32-.17-.35-.2s-.04-.09-.02-.17c-.22,0-.39,0-.48.02-.1.01-.19,0-.26-.06-.05-.27-.11-.52-.19-.75s-.17-.42-.3-.6l-.34-.48-.19-.48c-.05-.07-.11-.14-.17-.2-.06-.06-.12-.14-.17-.24-.05-.27-.12-.45-.2-.54-.09-.09-.17-.19-.24-.32,0-.12-.02-.24-.06-.35s-.04-.23-.02-.35c-.1-.25-.17-.4-.2-.45-.04-.05-.04-.14-.02-.26-.22-.27-.35-.49-.37-.65-.02-.16-.01-.33.04-.5-.12-.22-.17-.35-.15-.39.02-.04.05-.08.07-.13-.17-.2-.27-.31-.3-.34-.02-.02-.04-.06-.04-.11.02-.2.06-.37.09-.52s.06-.34.06-.56c-.05-.07-.09-.14-.13-.2-.04-.06-.04-.15-.02-.28-.15-.15-.24-.29-.26-.41.12-.27.12-.52,0-.75-.05-.22-.04-.43.02-.63.06-.2.06-.39-.02-.56.02-.12.03-.21.02-.26-.01-.05-.04-.12-.09-.22.07-.32.1-.58.07-.76-.02-.19.02-.37.15-.54-.07-.62-.02-1.03.15-1.23,0-.1-.02-.17-.06-.22-.04-.05-.08-.12-.13-.22.02-.2.07-.35.15-.45.07-.1.15-.21.22-.34.05-.15.07-.34.07-.56v-.63c.02-.15.06-.3.09-.47.04-.16.07-.33.09-.5-.07-.2-.06-.37.04-.52-.05-.2-.03-.35.06-.47.09-.11.14-.23.17-.35.05-.07.11-.14.19-.2.07-.06.14-.15.19-.28.05-.25.14-.39.26-.43.12-.04.21-.11.26-.2.07-.42.24-.76.48-1.01,0-.3.02-.49.07-.58.05-.09.1-.18.15-.28,0-.17.04-.31.11-.41.07-.1.12-.24.15-.41.12-.07.27-.14.43-.19.16-.05.29-.14.39-.26.25-.15.42-.27.5-.37.09-.1.2-.17.35-.22.3-.12.48-.23.56-.32.07-.09.15-.18.22-.28.15-.22.26-.35.34-.37.07-.02.16-.02.26,0,.27-.2.57-.3.89-.3.35-.12.6-.23.76-.32.16-.09.37-.15.61-.2.1-.05.19-.09.26-.11.07-.02.17-.01.3.04.07.1.19.16.35.17.16.01.33.04.5.09.07-.05.14-.09.2-.11.06-.02.15-.04.28-.04.22.07.35.11.39.09.04-.01.08-.02.13-.02.05.05.1.11.15.17.05.06.11.11.19.13.15-.05.29-.09.41-.11.12-.02.25-.04.37-.04.4.05.75.14,1.04.26.27.15.38.24.32.28-.06.04-.07.11-.02.2.1.02.21.03.34.02.12-.01.22,0,.3.06.05.12.12.22.22.28.1.06.19.14.26.24.17,0,.3.02.39.07.09.05.15.11.2.19.07.12.21.24.41.34l.37.22c.2,0,.35.01.45.04.1.1.19.16.26.19.07.02.09.09.04.19l-.04.48c.12,0,.29.02.48.07.05.2.07.35.07.45-.07.32-.02.48.15.47.17-.01.3.04.37.17,0,.12-.02.21-.07.26s-.06.12-.04.22c-.15.15-.32.27-.52.37-.07.27-.21.4-.41.39-.2-.01-.39.04-.56.17.02.32-.02.47-.15.45-.12-.02-.21.05-.26.22,0,.37-.08.58-.24.61-.16.04-.3.13-.43.28,0,.12-.04.21-.11.26-.07.05-.15.11-.22.19-.2.32-.36.49-.48.5-.12.01-.22.06-.3.13-.07.15-.14.23-.2.24-.06.01-.12.04-.17.09-.05.1-.11.17-.17.2-.06.04-.12.08-.17.13-.1.17-.19.27-.26.28-.07.01-.15.04-.22.09-.25.17-.43.26-.56.26s-.16-.07-.11-.22c0-.12.04-.22.13-.28.09-.06.15-.12.2-.17-.02-.07-.06-.15-.11-.22-.05-.07-.1-.15-.15-.22-.27-.12-.37-.24-.28-.35.09-.11.15-.2.2-.28.02-.35.07-.58.13-.71.06-.12.09-.25.09-.37.2-.22.27-.36.2-.41-.06-.05-.13-.1-.2-.15-.05-.12-.07-.24-.07-.34s.02-.21.07-.34c-.02-.02.04-.12.19-.28.15-.16.21-.27.19-.32-.25-.12-.35-.2-.32-.22.04-.02.04-.06.02-.11-.05-.05-.09-.11-.13-.17-.04-.06-.12-.08-.24-.06-.17-.17-.3-.25-.37-.22-.07.02-.17.01-.3-.04-.05-.07-.11-.15-.17-.24-.06-.09-.08-.2-.06-.35-.22-.07-.37-.07-.45,0s-.17.14-.3.19c-.12-.05-.22-.11-.28-.17-.06-.06-.12-.12-.17-.17-.15.05-.26.12-.34.2-.07.09-.16.17-.26.24-.3-.12-.48-.12-.54,0-.06.12-.16.22-.28.3-.15.22-.32.43-.52.63-.25.1-.4.22-.45.37-.05.15-.11.29-.19.41-.17.15-.29.29-.34.41-.05.12-.05.25,0,.37-.2.25-.37.4-.52.45-.15.05-.2.19-.15.41l-.41.48c0,.37-.05.65-.15.82-.2.22-.26.45-.19.69.07.24.11.48.11.73-.07.12-.12.26-.13.39-.01.14-.07.23-.17.28-.02.12-.02.23,0,.32.02.09.04.18.04.28-.15.25-.19.4-.13.47.06.06.12.13.17.2-.02.17-.1.29-.22.35-.12.06-.16.19-.11.39.17.42.24.78.19,1.08-.05.3-.02.58.07.86,0,.12-.02.22-.06.28-.04.06-.08.13-.13.2,0,.2.03.37.09.5.06.14.12.28.17.43-.05.07-.11.11-.19.09-.07-.01-.15-.02-.22-.02.12.35.23.66.32.93.09.27.19.52.32.75.05.22.08.39.09.48.01.1.02.21.02.34-.05.05-.12.07-.2.07s-.17.01-.24.04c.02.12.07.2.15.24s.14.09.19.17c.12.05.25.16.37.34.02.17.05.34.07.5.02.16.06.34.11.54.25.15.35.25.32.3-.04.05-.07.11-.09.19.1.32.21.5.34.54.12.04.24.09.34.17.07.42.19.72.34.89l.34.45c.32.17.61.32.86.45.07-.02.14-.04.2-.06.06-.01.14-.02.24-.02.1.02.16.09.19.2.02.11.06.2.11.28.2.02.43.02.71-.02.27-.04.47-.12.6-.24.37.05.61,0,.73-.15s.25-.25.43-.3c.05-.15.17-.27.37-.37.35-.12.53-.17.56-.15.37-.17.59-.35.65-.52.06-.17.15-.31.28-.41,0-.07.04-.21.11-.41.07-.2.14-.31.19-.34.3.05.4-.06.32-.32-.09-.26-.11-.47-.06-.61.4-.25.67-.57.82-.97-.07-.2-.06-.45.04-.76.1-.31.17-.49.22-.54-.05-.05-.12-.07-.22-.07s-.2,0-.32.02c-.11.01-.22.02-.32.04-.1.01-.16,0-.19-.06-.12-.07-.18-.13-.17-.17.01-.04,0-.11-.06-.2-.12.02-.24.1-.35.22-.11.12-.24.19-.39.19-.57-.2-.91-.24-1.01-.13-.1.11-.25.22-.45.32-.12,0-.2-.02-.22-.07-.02-.05-.07-.09-.15-.11h-.56c-.1-.02-.16-.07-.19-.13-.02-.06-.07-.11-.15-.13-.1,0-.17.03-.2.09-.04.06-.12.11-.24.13-.05.02-.12.05-.2.07-.09.02-.19.04-.32.04-.07-.37-.05-.63.07-.76.12-.14.17-.33.15-.58.05-.05.09-.12.11-.2.02-.09.06-.17.11-.24-.12-.27-.11-.51.04-.71-.07-.05-.15-.11-.22-.17-.07-.06-.12-.14-.15-.24-.07-.05-.14-.09-.2-.11-.06-.02-.11-.09-.13-.19.05-.12.18-.17.39-.15.21.02.38.01.5-.04.05-.07.06-.15.04-.24-.02-.09,0-.15.07-.2.12-.02.2,0,.24.09.04.09.08.17.13.24.12-.07.28-.09.47-.06s.37.04.54.02l.52-.04c.47-.15.78-.2.93-.15.15.05.36.07.63.07.1-.02.19-.06.28-.11.09-.05.2-.06.35-.04.37.17.61.24.73.19.11-.05.25-.05.43,0,.27-.07.45-.09.52-.06s.15.07.22.09c.12-.05.29-.1.48-.15.2-.05.35.01.45.19.12-.05.22-.05.3,0,.07.05.17.1.3.15.12-.05.25-.08.39-.09.14-.01.27,0,.39.06.1-.07.23-.17.39-.28.16-.11.3-.07.43.13-.05.17-.16.37-.34.58-.17.21-.22.43-.15.65-.17.2-.26.41-.24.63.01.22,0,.4-.06.52,0,.07.03.14.09.19.06.05.14.09.22.13.09.04.16.07.22.11.06.04.09.09.09.17,0,.2-.17.27-.52.22-.02.05-.02.13,0,.24.02.11.06.19.11.24.02.02.04.23.04.61v1.3c0,.48,0,.96-.02,1.43-.01.47-.02.8-.02.97.05.1.11.19.17.28.06.09.04.18-.06.28Z"/>
        <path class="cls-7" d="M39.74,45.87c0,.2-.07.34-.22.41.05.22.06.34.04.35-.02.01-.05.03-.07.06,0,.22-.04.42-.11.6.17.27.25.42.22.45s-.05.06-.07.11c.1.32.04.52-.19.6.02.12.06.24.11.34.05.1.1.21.15.34-.05.17-.08.32-.09.43-.01.11-.03.19-.06.24.02.12.08.24.17.35.09.11.09.26.02.43-.22.17-.32.27-.3.3.02.02.05.06.07.11,0,.12.02.23.06.32.04.09.06.18.06.28-.15.15-.25.25-.3.32-.05.06-.12.11-.22.13-.17-.22-.3-.31-.37-.26-.07.05-.14.04-.19-.04-.02-.15.01-.24.11-.28.1-.04.16-.12.19-.24-.12.02-.21.06-.26.11s-.11.1-.19.15c-.07.05-.14.11-.19.17-.05.06-.11.12-.19.17-.07-.02-.14-.07-.19-.13-.05-.06-.1-.12-.15-.17,0-.07.02-.21.07-.41-.12.02-.19.07-.2.15-.01.07-.02.16-.02.26-.12.1-.32.14-.6.13-.27-.01-.42-.13-.45-.35-.1.05-.25.07-.45.07-.17.12-.32.19-.45.19-.2-.05-.37-.05-.52,0-.3-.12-.49-.13-.58-.02-.09.11-.19.13-.32.06-.3-.07-.47-.1-.52-.07-.05.02-.11.04-.19.04-.05,0-.11,0-.19-.02-.07-.01-.15-.02-.22-.02-.07-.05-.14-.1-.19-.15-.05-.05-.09-.14-.11-.26.15-.15.24-.21.28-.19.04.02.08.05.13.07.2-.27.33-.45.39-.54.06-.09.12-.18.17-.28.1-.22.17-.32.22-.28.05.04.1.04.15.02.1-.3.12-.48.07-.56-.05-.07-.07-.17-.07-.3.07-.12.16-.15.26-.07.1.07.19.14.26.19.05-.25.1-.37.15-.35.05.01.09,0,.11-.06.02-.05.03-.12.02-.2-.01-.09,0-.17.02-.24-.05-.07-.1-.14-.15-.19-.05-.05-.07-.14-.07-.26.07-.1.15-.19.24-.26.09-.07.14-.2.17-.37-.02-.32-.07-.5-.13-.52-.06-.02-.09-.1-.09-.22.12-.25.12-.45,0-.61-.12-.16-.12-.35,0-.58-.02-.37.01-.63.11-.78-.07-.2-.11-.32-.11-.35s.01-.08.04-.13c-.07-.25-.1-.42-.07-.5.02-.09.04-.18.04-.28-.07-.25-.09-.39-.06-.43s.07-.08.09-.13c0-.15-.01-.3-.04-.45-.02-.15,0-.25.07-.3-.05-.12-.07-.25-.06-.39.01-.14.02-.3.02-.5-.12-.27-.17-.47-.13-.58s.08-.23.13-.35c-.05-.05-.07-.13-.07-.24s.04-.19.11-.24c-.05-.05-.11-.11-.17-.17-.06-.06-.11-.13-.13-.2.05-.17.14-.3.26-.39.12-.09.21-.23.26-.43-.15-.27-.22-.43-.2-.48.01-.05.02-.11.02-.19-.07-.1-.12-.22-.13-.37-.01-.15.03-.27.13-.37.02-.17.05-.29.07-.34.02-.05.06-.11.11-.19-.1-.15-.2-.27-.32-.37-.11-.1-.17-.25-.17-.45.07-.15.13-.25.17-.3.04-.05.08-.1.13-.15,0-.5-.04-.93-.11-1.3s-.1-.73-.07-1.08c.1-.15.18-.31.24-.48.06-.17.15-.32.28-.45-.05-.12-.11-.22-.19-.28-.07-.06-.14-.14-.19-.24-.02-.27,0-.56.07-.86,0-.22.04-.34.11-.35.07-.01.12-.06.15-.13-.05-.15-.14-.25-.28-.3-.14-.05-.23-.14-.28-.26.02-.1.06-.2.11-.3.05-.1.06-.2.04-.3.05-.3.06-.48.04-.54-.02-.06-.04-.12-.04-.17,0-.2,0-.33-.02-.39-.01-.06-.04-.12-.09-.17.02-.12.07-.21.13-.26.06-.05.12-.11.17-.19-.07-.07-.16-.18-.26-.32-.1-.14-.1-.29,0-.47-.05-.05-.11-.09-.17-.13-.06-.04-.11-.09-.13-.17.02-.22,0-.37-.06-.43-.06-.06-.12-.12-.17-.17-.22-.02-.36-.09-.41-.19-.22-.22-.4-.32-.52-.28-.12.04-.21,0-.26-.13-.15-.25-.23-.39-.24-.41-.01-.02-.02-.06-.02-.11.12-.07.29-.12.5-.13.21-.01.39,0,.54.06.07.12.19.2.35.22.16.02.3.07.43.15.35-.02.57-.09.67-.19s.25-.14.45-.11c.07-.05.17-.08.28-.09.11-.01.2-.04.28-.09.32.05.52.1.6.15.07.05.15.1.22.15.4.02.71,0,.93-.06.22-.06.43-.14.63-.24.32-.02.53.04.63.19.02.12.07.19.15.19s.12.04.15.11c0,.15-.07.23-.2.24-.14.01-.24.07-.32.17.17.27.25.43.22.47-.02.04-.04.08-.04.13.07.2.06.35-.04.45.05.07.09.14.13.2.04.06.07.14.09.24-.02.2-.1.36-.22.48.1.27.17.43.2.47s.07.09.09.17c-.02.15-.08.26-.17.34-.09.07-.17.16-.24.26.1.25.17.4.2.47.04.06.08.13.13.2,0,.22-.06.4-.17.52-.11.12-.19.29-.24.48.15.3.27.47.35.5.09.04.14.11.17.2-.07.2-.1.3-.07.32.02.01.02.04,0,.09-.02.1-.06.17-.11.22s-.06.14-.04.26c.02.12.07.21.13.26.06.05.11.14.13.26-.02.12-.07.22-.13.28s-.12.13-.17.2c.17.4.29.66.34.78-.05.25-.09.47-.13.67-.04.2-.06.41-.06.63-.05.37-.06.62-.04.75.02.07.07.13.13.17.06.04.11.11.13.2-.05.3-.14.53-.28.71-.14.17-.29.34-.47.48.02.05.09.06.19.04.1-.02.17-.01.22.04.02.12.02.21,0,.26-.02.05-.05.1-.07.15.22.17.32.31.28.41-.04.1-.08.19-.13.26.15.4.21.7.19.91-.02.21-.09.42-.19.61.02.37.05.67.07.89-.05.12-.11.22-.17.3-.06.07-.12.17-.17.3.17.27.29.43.34.48-.05.1-.04.17.02.22.06.05.09.11.09.19.02.12,0,.21-.07.26-.07.05-.16.11-.26.19.07.37.13.67.17.88.04.21,0,.42-.09.61.07.4.07.68,0,.86,0,.12,0,.23.02.32.01.09,0,.18-.06.28.05.1.13.17.24.2s.19.12.24.24Z"/>
        <path class="cls-7" d="M60.13,50.94c.05.1.12.17.2.22.09.05.14.14.17.26-.05.1-.08.19-.09.28-.01.09-.07.15-.17.2-.25-.05-.49-.1-.73-.15-.24-.05-.49-.1-.76-.15-.27,0-.48.06-.63.17s-.36.17-.63.17c-.2-.02-.35-.1-.45-.22-.12.02-.24.05-.35.07-.11.02-.2-.01-.28-.11-.45.07-.74.16-.88.26-.14.1-.3.16-.5.19-.1-.07-.19-.2-.26-.37h-.24c-.09,0-.16-.01-.2-.04-.15.07-.34.15-.56.22s-.43.04-.63-.11c-.15.05-.33.08-.54.09-.21.01-.4.04-.58.09-.07.05-.14.1-.2.15-.06.05-.17.06-.32.04,0-.27.06-.39.17-.35s.19,0,.24-.09c.12-.2.24-.3.35-.32.11-.01.23-.03.35-.06.17-.05.32-.12.45-.22.12-.1.32-.14.6-.11.12-.07.22-.16.28-.26.06-.1.14-.19.24-.26,0-.15.04-.26.11-.34s.11-.2.11-.37c.12-.17.17-.27.15-.3-.02-.02-.04-.06-.04-.11.02-.25,0-.45-.07-.61-.07-.16-.07-.35,0-.58-.07-.2-.09-.39-.04-.56-.12-.3-.17-.47-.13-.5s.04-.08.02-.13c-.05-.22-.12-.43-.2-.63-.09-.2-.13-.43-.13-.71-.1-.15-.17-.32-.22-.52-.05-.2-.1-.4-.15-.6.1-.32.11-.52.02-.6-.09-.07-.17-.15-.24-.22-.25.07-.42.12-.5.15-.09.02-.16.05-.2.07-.2,0-.38-.02-.54-.06-.16-.04-.34-.06-.54-.06-.12.05-.27.09-.43.13-.16.04-.3,0-.43-.09-.27-.02-.43-.06-.47-.09s-.08-.08-.13-.13c-.15.02-.28.07-.39.13-.11.06-.23.08-.35.06-.05-.05-.09-.11-.13-.17-.04-.06-.09-.11-.17-.13-.2,0-.42.06-.67.19-.05.37-.09.61-.13.71-.04.1-.09.2-.15.3-.06.1-.11.2-.15.3-.04.1-.02.21.06.34-.05.15-.11.28-.17.39-.06.11-.12.23-.17.35,0,.07,0,.14.02.2.01.06,0,.13-.02.2-.02.17-.08.32-.17.45-.09.12-.12.31-.09.56-.07.12-.13.25-.17.37-.04.12-.09.25-.17.37.05.3.06.47.02.52-.04.05-.07.12-.09.22,0,.05,0,.11.02.19.01.07,0,.15-.02.22-.05.17-.11.32-.17.45-.06.12-.11.29-.13.48-.1.32-.19.52-.26.6,0,.27-.01.48-.04.63-.02.15-.14.22-.34.22-.25.2-.39.35-.43.47s-.12.18-.24.2c-.12.25-.24.41-.35.48s-.27.12-.47.15c-.1.05-.19.11-.26.19s-.19.1-.34.07c-.05.05-.11.11-.17.19-.06.07-.17.1-.32.07-.3-.07-.43-.07-.41,0,.02.07.01.16-.04.26-.07.32-.2.5-.37.52-.17.02-.35.02-.52,0-.15.1-.29.19-.43.28-.14.09-.24.19-.32.32-.12,0-.22.04-.28.13-.06.09-.15.14-.28.17-.22.22-.37.39-.45.48-.07.1-.17.17-.3.22-.42.2-.76.45-1.02.75s-.53.57-.8.82c-.12-.05-.24-.13-.35-.24s-.13-.27-.06-.47c.07-.07.16-.14.26-.2.1-.06.17-.16.22-.28.2-.12.35-.23.45-.32.1-.09.15-.22.15-.39.27-.37.53-.81.78-1.3.1-.05.18-.11.24-.19.06-.07.12-.15.17-.22.02-.17.08-.3.17-.39s.16-.2.2-.35c.12-.07.22-.17.3-.3.05-.15.07-.3.07-.45.05-.12.11-.26.17-.39.06-.14.12-.27.17-.39.35-.37.56-.75.65-1.12.09-.37.2-.71.35-1.01.05-.25.11-.37.17-.37s.09-.02.09-.07c-.05-.25-.07-.4-.06-.45.01-.05.04-.1.09-.15,0-.3.04-.54.13-.73.09-.19.18-.38.28-.58-.05-.1-.06-.17-.02-.22.04-.05.07-.12.09-.22-.05-.3-.02-.56.07-.8.1-.24.17-.48.22-.73.05-.07.09-.14.13-.2.04-.06.08-.13.13-.2.07-.15.12-.32.15-.5.02-.19.07-.35.15-.5,0-.12.01-.24.04-.34.02-.1.06-.2.11-.3,0-.32.01-.52.04-.6.02-.07.05-.15.07-.22.02-.12.04-.23.06-.32.01-.09,0-.19-.02-.32.07-.42.17-.83.28-1.23.11-.4.22-.81.32-1.23.05-.05.09-.12.11-.2.02-.09.06-.17.11-.24.07-.27.11-.43.11-.47s.02-.08.07-.13c.05-.3.09-.58.11-.86.02-.27.06-.55.11-.82.02-.25.06-.41.11-.48.05-.07.1-.16.15-.26.02-.22.01-.43-.04-.61-.05-.19-.05-.39,0-.61.17-.2.31-.41.41-.63-.05-.27-.02-.46.07-.56-.1-.32-.12-.53-.06-.61.06-.09.12-.15.17-.2.15-.4.25-.76.3-1.1.05-.34.16-.61.34-.84.12-.3.17-.53.15-.71,0-.12-.04-.25-.13-.37-.09-.12-.09-.25-.02-.37.05-.07.09-.15.11-.24.02-.09.07-.15.15-.2.02-.2.04-.4.04-.61s.02-.42.07-.61c-.12-.35-.15-.58-.07-.71-.05-.1-.1-.16-.15-.19-.05-.02-.09-.07-.11-.15.1-.27.09-.51-.04-.71-.05-.05-.11-.09-.17-.13-.06-.04-.12-.08-.17-.13-.27-.12-.34-.23-.2-.32.14-.09.23-.18.28-.28-.05-.07-.12-.12-.2-.13-.09-.01-.18-.02-.28-.02s-.19-.02-.26-.06-.11-.12-.11-.24c.12-.05.26-.09.41-.11.15-.02.29-.06.41-.11.47.02.77.07.89.15.2-.05.37-.12.52-.2.15-.09.35-.09.6-.02.3.07.5.03.61-.13.11-.16.24-.25.39-.28.17-.02.3.04.37.19s.07.32,0,.52c.17-.02.3-.06.39-.11.09-.05.19-.1.32-.15.35.15.58.19.69.13.11-.06.25-.12.43-.17.3.15.48.2.54.17.06-.04.14-.04.24-.02.1-.05.19-.11.26-.17.07-.06.17-.08.3-.06.12.25.15.41.09.48-.06.07-.11.17-.13.3.15.25.22.4.2.45-.01.05,0,.1.02.15-.02.15-.04.3-.06.45-.01.15-.02.31-.02.48.02.07.05.14.07.19.02.05.04.14.04.26.2.15.29.26.28.34-.01.07-.02.15-.02.22.05.25.06.43.04.54-.02.11-.01.22.04.32.02.1.06.18.09.24.04.06.06.12.06.17.22.22.32.35.28.37-.04.02-.08.07-.13.15.2.4.31.69.34.88.02.19.09.34.19.47.02.3.14.56.34.78.05.37.1.73.15,1.06.05.34.09.7.11,1.1.1-.02.17-.06.2-.11.04-.05.11-.06.2-.04-.07.25-.07.37,0,.37s.12.02.15.07c0,.12-.04.21-.11.26-.07.05-.12.12-.15.22.17.42.27.73.3.93.02.2.05.4.07.6.12.22.2.39.22.48.02.1,0,.19-.07.26.02.2.07.35.13.45.06.1.14.21.24.34-.02.12-.01.22.04.3.05.07.07.17.07.3s-.03.21-.09.26c-.06.05-.09.12-.09.22.15.2.26.35.34.45.07.1.14.17.19.22.07.3.13.53.17.69.04.16.11.29.2.39-.05.47.01.82.19,1.04.12.07.25.14.37.2.12.06.25.13.37.2.05.17-.01.32-.19.45.02.1.06.19.09.28.04.09.03.19-.02.32.05.15.09.32.13.5s.04.37.02.54c.02.1.05.2.07.3.02.1.04.21.04.34.05.1.08.21.09.34.01.12.02.26.02.41.05.07.09.14.11.2.02.06.05.13.07.2,0,.15.02.28.07.39.05.11.1.22.15.32.02.25.07.47.13.67.06.2.09.43.09.71.17.42.34.69.5.8.16.11.3.24.43.39.02.22.01.4-.04.54-.05.14-.1.28-.15.43.12.17.21.37.26.58.05.21.11.42.19.61ZM51.93,40.17c.12.15.29.16.48.04-.05-.2-.1-.39-.15-.58-.05-.19-.1-.38-.15-.58.07-.1.09-.23.06-.39-.04-.16-.03-.32.02-.47-.07-.12-.14-.26-.19-.41-.05-.15-.14-.29-.26-.41-.02-.1-.06-.17-.11-.22-.05-.05-.09-.12-.11-.22,0-.15,0-.31-.02-.48-.01-.17,0-.34.06-.48-.1-.2-.2-.39-.3-.56-.1-.17-.2-.36-.3-.56-.07-.35-.12-.62-.15-.82,0-.12.02-.26.06-.41s-.04-.24-.24-.26c-.05.35-.09.59-.11.73-.02.14-.07.26-.15.35-.02.17-.04.33-.04.47s-.01.29-.04.47c-.12.12-.18.27-.17.43.01.16.02.35.02.58-.07.15-.15.29-.22.43-.07.14-.15.27-.22.39-.02.1-.03.19-.02.26.01.07,0,.15-.06.22-.02.12-.06.22-.09.28-.04.06-.07.14-.09.24,0,.05,0,.12.02.2.01.09.02.17.02.24,0,.12-.01.26-.04.41-.02.15-.05.27-.07.37-.05.12-.11.22-.17.3-.06.07-.12.16-.17.26-.05.27.02.36.2.26.19-.1.34-.15.47-.15.07.02.14.06.19.09.05.04.12.07.22.09.2.05.38.05.54,0,.16-.05.32-.02.47.07.25-.12.52-.19.82-.19Z"/>
      </g>
      <g>
        <g>
          <path class="cls-4" d="M96.9,44.11c-1.27-.04-2.33.86-2.37,1.99l-4.65-1.53-17.58-5.19c-.11-.03-.22-.07-.33-.11l-3.32-1.28h-.02c.01-.07.03-.15.03-.23.06-1.14-.93-2.11-2.2-2.17-1.27-.06-2.35.81-2.41,1.94-.03.63.26,1.22.74,1.62-.82.28-1.41.97-1.46,1.81-.06,1.14.93,2.11,2.2,2.17,1.27.06,2.35-.81,2.41-1.94l4.34,1.53c.18.06.37.13.56.18l17.27,5.07c.18.05.36.11.54.18l3.24,1.17h.02c-.01.07-.02.15-.02.23-.03,1.14.97,2.09,2.25,2.13s2.33-.86,2.37-1.99c.02-.63-.29-1.21-.78-1.6.81-.3,1.39-1,1.42-1.84.03-1.14-.97-2.09-2.25-2.13Z"/>
          <path class="cls-4" d="M66.44,44.72c1.27-.12,2.39.7,2.49,1.83l4.54-1.83,17.21-6.33c.11-.04.22-.08.32-.13l3.23-1.49h.02c-.02-.07-.04-.15-.05-.23-.13-1.13.79-2.17,2.06-2.31,1.27-.15,2.4.65,2.53,1.78.07.63-.18,1.23-.64,1.66.84.23,1.47.88,1.57,1.71.13,1.13-.79,2.17-2.06,2.31-1.27.15-2.4-.65-2.53-1.78l-4.23,1.81c-.18.08-.36.15-.55.22l-16.9,6.19c-.18.06-.35.13-.52.21l-3.16,1.38h-.02c.02.07.03.15.04.23.11,1.13-.83,2.15-2.1,2.27s-2.39-.7-2.49-1.83c-.06-.63.21-1.23.67-1.65-.83-.25-1.46-.91-1.54-1.74-.11-1.13.83-2.15,2.1-2.27Z"/>
        </g>
        <path class="cls-5" d="M72.51,40.29s-.65,4.93,6.56,4.7c7.21-.22,8.5-4.73,8.14-8.32"/>
        <path class="cls-1" d="M91.77,33.02c-.59,1.49-1.55,2.33-2.53,2.79-1.82.85-3.76.41-3.76.41l.77.28c-.18,1.73-.66,2.61-1.02,3.04-.18.22-.42.38-.68.48-3.1,1.22-2.36-2.64-2.36-2.64,0,0,.46,3.14-2.03,3.33s-2.03-3.54-2.03-3.54c0,0,.55,3.85-2.06,3.36s-1.85-3.48-1.85-3.48c0,.99-.09,3.61-2.25,2.77s-1.73-4.44-1.73-4.44c-7.4-1.29-3.61-6.19-3.61-6.19,0,0-3.04-9.85,5.53-14.7,9.09-5.14,17.13-1.18,17.13-1.18,0,0,9.15,3.56,8.05,13.64,0,0-1.01,7.13-8.34,8.96"/>
        <path class="cls-7" d="M78.39,29.42s-.5-.62-1.05-.1-1.84,2.1-1.84,2.1c0,0-.27.64.19,1.05s1.3.62,1.88-.33c0,0,.12-.06.17.25s.6.97,1.16.89.91-.54.89-1.03-.76-2.33-1.38-2.83Z"/>
        <path class="cls-7" d="M89.84,27.72c-.09,2.62-2.13,4.75-4.37,4.43s-3.89-1.88-3.63-5.05c.21-2.61,2.15-4.78,4.36-4.61s3.74,2.19,3.64,5.23Z"/>
        <path class="cls-7" d="M75.41,26.92c-.2,2.51-1.92,4.29-3.86,4.28s-3.36-1.88-3.15-4.82c.18-2.51,1.92-4.43,3.86-4.28s3.35,2.31,3.15,4.82Z"/>
        <path class="cls-6" d="M86.87,13.7s-4.21-5.37-5.41-1.94c-.09.26-.13.54-.13.81,0,.32.03.77.09,1.05.14.6-.11,1.02-.26,1.24,0,0-3.38,5.19,4.71,2.24l1-3.4Z"/>
        <path class="cls-6" d="M89.67,18.3c1.55,1.51,4.73,4.02,5.32.03.01-.08.02-.16.02-.24,0-.18,0-.49-.08-.67-.09-.2-.01-.64.19-.86.22-.24.4-.51.49-.82.44-1.48.84-4.62-4.94-1.96-.49.22-.86.64-1.03,1.15l-.46,1.37c-.24.71-.05,1.49.48,2Z"/>
        <line class="cls-2" x1="90.05" y1="16.23" x2="92.18" y2="16.24"/>
        <line class="cls-3" x1="83.84" y1="14.63" x2="85.87" y2="15.29"/>
        <line class="cls-3" x1="90" y1="16.13" x2="92.23" y2="16.34"/>
        <rect class="cls-6" x="86.16" y="13.42" width="3.54" height="4.3" rx="1.71" ry="1.71" transform="translate(5.15 -17.93) rotate(11.99)"/>
      </g>
    </g>
  </g>
</svg>