<?xml version="1.0" encoding="UTF-8"?>
<svg id="Layer_1" data-name="Layer 1" xmlns="http://www.w3.org/2000/svg" viewBox="0 0 216 216">
  <defs>
    <style>
      .cls-1 {
        stroke: #ee2a7b;
      }

      .cls-1, .cls-2, .cls-3 {
        fill: none;
        stroke-miterlimit: 10;
      }

      .cls-2 {
        stroke: #ed1c24;
      }

      .cls-4 {
        fill: #9251a0;
      }

      .cls-3 {
        stroke: #39b54a;
      }
    </style>
  </defs>
  <g>
    <path class="cls-1" d="M79.07,118.61h1.12v-4.82h-1.12v-7.11h13.8l1.12,4.82h.11l1.12-4.82h14.28v7.11h-1.12v4.82h1.12v7.11h-10.98v-6.27h1.12v-6.94h-.11l-3.3,13.22h-4.93l-3.3-13.22h-.11v6.94h1.12v6.27h-9.94v-7.11Z"/>
    <path class="cls-1" d="M112.45,124.88c0-2.46,1.57-4.03,4-4.03,2.27,0,3.72,1.4,3.86,3.7h.11c.08-.22.14-.64.14-1.04,0-2.18-1.74-3.67-4.34-3.67-1.29,0-2.49.36-3.25.98l-1.43-3.72h-1.04v-7.11h10.16v7.11l1.12,3h.11l1.12-3h-1.32v-7.11h10.58v7.11h-1.04l-2.77,7.31c-1.46,3.81-3.92,5.63-8.54,5.63s-7.5-1.9-7.5-5.15Z"/>
    <path class="cls-1" d="M141.06,124.46h-.11l-.17,1.26h-7.5v-6.75h1.4c1.37.87,3.14,1.4,5.26,1.4.84,0,1.4-.08,1.99-.31v-.11c-6.52-.87-8.96-2.74-8.96-5.71,0-2.77,2.16-4.7,5.57-4.7,1.85,0,3.36.56,4.59,1.71h.11l.17-1.26h7.5v6.19h-1.4c-1.26-.7-3.05-1.12-4.87-1.12-.81,0-1.32.08-1.85.25v.11c6.89,1.4,8.99,2.6,8.99,5.68s-2.18,5.07-5.91,5.07c-1.85,0-3.22-.48-4.82-1.71Z"/>
    <path class="cls-1" d="M153.02,121.35v-4.26h-1.04v-6.27c1.65-.28,2.58-1.51,3.14-4.14h6.38v3.3h2.91v7.11h-2.91v.81c0,.73.39.95,1.32.95.31,0,.76-.03,1.32-.17l.42,6.86c-1.23.39-2.94.62-4.93.62-4.82,0-6.61-1.29-6.61-4.82Z"/>
    <path class="cls-1" d="M165.51,118.61h1.04v-1.51h-1.04v-3.7c1.04.92,2.97,1.51,5.12,1.51,1.65,0,3.14-.34,4.48-1.04v4.73h1.04v7.11h-10.64v-7.11ZM165.76,109.76c0-2.58,1.88-4.23,4.84-4.23s4.84,1.65,4.84,4.23-1.88,4.23-4.84,4.23-4.84-1.65-4.84-4.23Z"/>
    <path class="cls-1" d="M176.85,117.77c0-5.35,3.44-8.23,9.8-8.23,4.93,0,7.53,1.74,7.53,4.98,0,2.49-1.54,3.95-4.14,3.95s-3.92-1.32-3.92-3.47c0-.31.03-.53.06-.76l-.11-.03c-.28.56-.42,1.23-.42,1.96,0,2.38,1.48,3.61,4.48,3.61,1.2,0,2.38-.2,3.42-.62l.73,5.88c-1.6.73-4,1.12-6.64,1.12-7.11,0-10.78-2.86-10.78-8.4Z"/>
  </g>
  <g>
    <path class="cls-1" d="M79.07,142.66h1.12v-4.82h-1.12v-7.11h14.2c5.4,0,7.81,1.65,7.81,5.38,0,1.96-.64,3.25-2.07,4v.11c1.6.73,2.35,2.04,2.35,4.17,0,3.75-2.35,5.38-7.81,5.38h-14.48v-7.11ZM90.3,138.54c.95,0,1.34-.31,1.34-1.06s-.39-1.06-1.34-1.06h-1.09v2.13h1.09ZM90.44,144.09c.95,0,1.34-.31,1.34-1.06s-.39-1.06-1.34-1.06h-1.23v2.13h1.23Z"/>
    <path class="cls-1" d="M102.17,142.66h1.04v-1.51h-1.04v-3.7c1.04.92,2.97,1.51,5.12,1.51,1.65,0,3.14-.34,4.48-1.04v4.73h1.04v7.11h-10.64v-7.11ZM102.42,133.81c0-2.58,1.88-4.23,4.84-4.23s4.84,1.65,4.84,4.23-1.88,4.23-4.84,4.23-4.84-1.65-4.84-4.23Z"/>
    <path class="cls-1" d="M114.24,145.4v-4.26h-1.04v-6.27c1.65-.28,2.58-1.51,3.14-4.14h6.38v3.3h2.91v7.11h-2.91v.81c0,.73.39.95,1.32.95.31,0,.76-.03,1.32-.17l.42,6.86c-1.23.39-2.94.62-4.93.62-4.82,0-6.61-1.29-6.61-4.82Z"/>
    <path class="cls-1" d="M126.39,141.9c0-5.4,3.5-8.32,9.91-8.32,5.88,0,8.99,2.44,8.99,6.92,0,.76-.08,1.54-.2,2.1h-9.86c.11,1.04.92,1.34,3.3,1.34,2.04,0,3.92-.22,5.6-.64l.67,5.68c-1.93.81-4.45,1.23-7.34,1.23-7.39,0-11.09-2.77-11.09-8.32ZM137.23,140.62v-.25c0-1.26-.31-1.82-1.01-1.82s-1.01.56-1.01,1.82v.25h2.02Z"/>
    <path class="cls-1" d="M153.86,148.51h-.11l-.17,1.26h-7.5v-6.75h1.4c1.37.87,3.14,1.4,5.26,1.4.84,0,1.4-.08,1.99-.31v-.11c-6.52-.87-8.96-2.74-8.96-5.71,0-2.77,2.16-4.7,5.57-4.7,1.85,0,3.36.56,4.59,1.71h.11l.17-1.26h7.5v6.19h-1.4c-1.26-.7-3.05-1.12-4.87-1.12-.81,0-1.32.08-1.85.25v.11c6.89,1.4,8.99,2.6,8.99,5.68s-2.18,5.07-5.91,5.07c-1.85,0-3.22-.48-4.82-1.71Z"/>
  </g>
  <ellipse class="cls-2" cx="178.24" cy="141.38" rx="8.71" ry="8.84"/>
  <polygon class="cls-3" points="185.78 140.37 181.97 138.34 178.89 141.38 179.62 137.09 175.81 135.06 180.07 134.43 180.8 130.13 182.7 134.04 186.96 133.41 183.88 136.46 185.78 140.37"/>
  <path class="cls-4" d="M54.12,48.86c13.59,0,23.2,7.41,23.36,18.02.19,9.69-7.14,17.79-17.83,19.72-1.82.33-3.14,1.86-3.14,3.65v10.57c0,2.06,1.76,3.73,3.93,3.73h.1c.64-.02,1.26-.03,1.86-.03,7.46,0,11.25,1.4,11.25,9.04v32.1c0,1.11-1.01,1.77-1.98,1.77-.59,0-1.12-.24-1.5-.68l-4.46-5.1c-.27-.3-.41-.69-.41-1.07v-11.85c0-2.06-1.76-3.73-3.92-3.73h-1.77c-2.16,0-3.92,1.67-3.92,3.73v17.14c0,.35-.12.69-.33.98-.02.03-.04.06-.06.09-.02.03-2.08,3.49-3.31,5.24-.07.1-.18.15-.3.15s-.24-.06-.31-.17l-3.68-5.59s-.02-.03-.03-.04c-.21-.29-.32-.62-.32-.96v-16.84c0-2.06-1.76-3.73-3.92-3.73h-2.23c-2.16,0-3.92,1.67-3.92,3.73v11.85c0,.39-.15.77-.41,1.07l-4.55,5.2c-.38.43-.9.67-1.48.67-.96,0-1.95-.65-1.95-1.74v-32.22c0-7.68,3.71-9.14,10.56-9.14.66,0,1.38.01,2.22.04h.14c2.17,0,3.93-1.67,3.93-3.73v-14.61c0-2.9,3.7-5.55,8.79-6.31,2.84-.43,5.61-1.62,8-3.45,4.38-3.36,6.08-6.89,5.2-10.77-1.25-5.55-5.5-9.07-11.35-9.43-.59-.04-1.12-.06-1.63-.06-5.56,0-9.21,2.34-11.16,7.16-.28.69-1,1.16-1.78,1.17l-5.77.06c-.62,0-1.18-.26-1.55-.71-.32-.39-.45-.88-.35-1.36,1.68-8.23,9.52-13.55,19.96-13.55M54.12,47.86c-11.94,0-19.34,6.48-20.94,14.35-.35,1.69,1.04,3.27,2.88,3.27.01,0,.02,0,.03,0l5.75-.06c1.21-.01,2.27-.74,2.7-1.79,2.24-5.55,6.63-6.53,10.23-6.53.54,0,1.07.02,1.56.05,6.17.38,9.45,4.27,10.44,8.65.93,4.11-1.6,7.27-4.83,9.75-2.17,1.67-4.76,2.84-7.53,3.26-5.56.83-9.65,3.78-9.65,7.3v14.61c0,1.52-1.32,2.73-2.93,2.73-.04,0-.07,0-.11,0-.78-.03-1.53-.04-2.26-.04-6.91,0-11.56,1.46-11.56,10.14v32.22c0,1.67,1.45,2.74,2.95,2.74.81,0,1.62-.31,2.23-1.01l4.55-5.2c.43-.49.66-1.1.66-1.73v-11.85c0-1.51,1.31-2.73,2.92-2.73h2.23c1.61,0,2.92,1.22,2.92,2.73v16.84c0,.55.18,1.1.52,1.55l3.68,5.59c.25.39.69.62,1.15.62s.86-.21,1.12-.57c1.26-1.8,3.35-5.3,3.35-5.3.35-.46.54-1.01.54-1.58v-17.14c0-1.51,1.31-2.73,2.92-2.73h1.77c1.61,0,2.92,1.22,2.92,2.73v11.85c0,.63.23,1.24.66,1.73l4.46,5.1c.62.7,1.44,1.02,2.25,1.02,1.51,0,2.98-1.08,2.98-2.77v-32.1c0-8.68-4.96-10.04-12.25-10.04-.61,0-1.24,0-1.88.03-.03,0-.05,0-.08,0-1.61,0-2.93-1.21-2.93-2.73v-10.57c0-1.29.96-2.42,2.32-2.66,11.56-2.08,18.83-11.03,18.65-20.72-.17-11.02-10.16-19-24.36-19h0Z"/>
</svg>