<?xml version="1.0" encoding="UTF-8"?>
<svg id="Layer_1" data-name="Layer 1" xmlns="http://www.w3.org/2000/svg" viewBox="0 0 166.94 105.5">
  <defs>
    <style>
      .cls-1 {
        stroke: #ee2a7b;
      }

      .cls-1, .cls-2, .cls-3 {
        fill: none;
        stroke-miterlimit: 10;
      }

      .cls-4 {
        fill: #9251a0;
      }

      .cls-2 {
        stroke: #39b54a;
      }

      .cls-3 {
        stroke: #ed1c24;
      }
    </style>
  </defs>
  <g>
    <path class="cls-1" d="M51.2,70.9h1.1v-4.8h-1.1v-7.1h13.8l1.1,4.8h.1l1.1-4.8h14.3v7.1h-1.1v4.8h1.1v7.1h-11v-6.3h1.1v-6.9h-.1l-3.3,13.2h-4.9l-3.3-13.2h-.1v6.9h1.1v6.3h-9.9s0-7.1,0-7.1Z"/>
    <path class="cls-1" d="M84.6,77.1c0-2.5,1.6-4,4-4s3.7,1.4,3.9,3.7h.1c0-.2.1-.6.1-1,0-2.2-1.7-3.7-4.3-3.7s-2.5.4-3.2,1l-1.4-3.7h-1v-7.1h10.2v7.1l1.1,3h.1l1.1-3h-1.3v-7.1h10.6v7.1h-1l-2.8,7.3c-1.5,3.8-3.9,5.6-8.5,5.6s-7.5-1.9-7.5-5.2h-.2,0Z"/>
    <path class="cls-1" d="M113.2,76.7h-.1l-.2,1.3h-7.5v-6.8h1.4c1.4.9,3.1,1.4,5.3,1.4s1.4,0,2-.3h0c-6.5-1-9-2.8-9-5.8s2.2-4.7,5.6-4.7,3.4.6,4.6,1.7h.1l.2-1.3h7.5v6.2h-1.4c-1.3-.7-3.1-1.1-4.9-1.1s-1.3,0-1.9.2h0c6.9,1.5,9,2.7,9,5.8s-2.2,5.1-5.9,5.1-3.2-.5-4.8-1.7h0Z"/>
    <path class="cls-1" d="M125.1,73.6v-4.3h-1v-6.3c1.6-.3,2.6-1.5,3.1-4.1h6.4v3.3h2.9v7.1h-2.9v.8c0,.7.4.9,1.3.9s.8,0,1.3-.2l.4,6.9c-1.2.4-2.9.6-4.9.6-4.8,0-6.6-1.3-6.6-4.8h0v.1Z"/>
    <path class="cls-1" d="M137.6,70.9h1v-1.5h-1v-3.7c1,.9,3,1.5,5.1,1.5s3.1-.3,4.5-1v4.7h1v7.1h-10.6v-7.1h0ZM137.9,62c0-2.6,1.9-4.2,4.8-4.2s4.8,1.7,4.8,4.2-1.9,4.2-4.8,4.2-4.8-1.7-4.8-4.2Z"/>
    <path class="cls-1" d="M149,70c0-5.3,3.4-8.2,9.8-8.2s7.5,1.7,7.5,5-1.5,3.9-4.1,3.9-3.9-1.3-3.9-3.5,0-.5,0-.8h-.1c-.3.5-.4,1.2-.4,1.9,0,2.4,1.5,3.6,4.5,3.6s2.4-.2,3.4-.6l.7,5.9c-1.6.7-4,1.1-6.6,1.1-7.1,0-10.8-2.9-10.8-8.4h0v.1h0Z"/>
  </g>
  <g>
    <path class="cls-1" d="M51.2,94.9h1.1v-4.8h-1.1v-7.1h14.2c5.4,0,7.8,1.6,7.8,5.4s-.6,3.2-2.1,4h0c1.6.8,2.3,2.1,2.3,4.3,0,3.8-2.3,5.4-7.8,5.4h-14.5v-7.1s.1-.1.1-.1ZM62.4,90.8c.9,0,1.3-.3,1.3-1.1s-.4-1.1-1.3-1.1h-1.1v2.1h1.1v.1ZM62.5,96.4c.9,0,1.3-.3,1.3-1.1s-.4-1.1-1.3-1.1h-1.2v2.1h1.2v.1Z"/>
    <path class="cls-1" d="M74.3,94.9h1v-1.5h-1v-3.7c1,.9,3,1.5,5.1,1.5s3.1-.3,4.5-1v4.7h1v7.1h-10.6v-7.1h0ZM74.5,86.1c0-2.6,1.9-4.2,4.8-4.2s4.8,1.6,4.8,4.2-1.9,4.2-4.8,4.2-4.8-1.6-4.8-4.2Z"/>
    <path class="cls-1" d="M86.3,97.7v-4.3h-1v-6.3c1.7-.3,2.6-1.5,3.1-4.1h6.4v3.3h2.9v7.1h-2.9v.8c0,.7.4.9,1.3.9s.8,0,1.3-.2l.4,6.9c-1.2.4-2.9.6-4.9.6-4.8,0-6.6-1.3-6.6-4.8h0s0,.1,0,.1Z"/>
    <path class="cls-1" d="M98.5,94.2c0-5.4,3.5-8.3,9.9-8.3s9,2.4,9,6.9,0,1.5-.2,2.1h-9.9c.1,1,.9,1.3,3.3,1.3s3.9-.2,5.6-.6l.7,5.7c-1.9.8-4.4,1.2-7.3,1.2-7.4,0-11.1-2.8-11.1-8.3h0ZM109.3,92.9v-.2c0-1.3-.3-1.8-1-1.8s-1,.6-1,1.8v.2h2Z"/>
    <path class="cls-1" d="M126,100.8h-.1l-.2,1.3h-7.5v-6.8h1.4c1.4.9,3.1,1.4,5.3,1.4s1.4,0,2-.3h0c-6.5-1-9-2.9-9-5.8s2.2-4.7,5.6-4.7,3.4.6,4.6,1.7h.1l.2-1.3h7.5v6.2h-1.4c-1.3-.7-3.1-1.1-4.9-1.1s-1.3,0-1.9.2h0c6.9,1.5,9,2.7,9,5.8s-2.2,5.1-5.9,5.1-3.2-.5-4.8-1.7h0Z"/>
  </g>
  <ellipse class="cls-3" cx="150.3" cy="93.6" rx="8.7" ry="8.8"/>
  <polygon class="cls-2" points="157.9 92.6 154.1 90.6 151 93.6 151.7 89.4 147.9 87.3 152.2 86.7 152.9 82.4 154.8 86.3 159.1 85.7 156 88.7 157.9 92.6"/>
  <path class="cls-4" d="M26.2,1.1c13.6,0,23.2,7.4,23.4,18,.2,9.7-7.1,17.8-17.8,19.7-1.8.3-3.1,1.9-3.1,3.7v10.6c0,2.1,1.8,3.7,3.9,3.7h1.9c7.5,0,11.2,1.4,11.2,9v32.1c0,1.1-1,1.8-2,1.8s-1.1-.2-1.5-.7l-4.5-5.1c-.3-.3-.4-.7-.4-1.1v-11.9c0-2.1-1.8-3.7-3.9-3.7h-1.8c-2.2,0-3.9,1.7-3.9,3.7v17.1c0,.4-.1.7-.3,1h0c0,.1-2.1,3.6-3.3,5.3,0,.1-.2.1-.3.1s-.2,0-.3-.2l-3.7-5.6h0c-.2-.3-.3-.6-.3-1v-16.8c0-2.1-1.8-3.7-3.9-3.7h-2.2c-2.2,0-3.9,1.7-3.9,3.7v11.9c0,.4-.2.8-.4,1.1l-4.5,5.2c-.4.4-.9.7-1.5.7-1,0-2-.6-2-1.7v-32.2c0-7.7,3.7-9.1,10.6-9.1s1.4,0,2.2,0h.1c2.2,0,3.9-1.7,3.9-3.7v-14.6c0-2.9,3.7-5.6,8.8-6.3,2.8-.4,5.6-1.6,8-3.4,4.4-3.4,6.1-6.9,5.2-10.8-1.2-5.5-5.5-9.1-11.3-9.4h-1.6c-5.6,0-9.2,2.3-11.2,7.2-.3.7-1,1.2-1.8,1.2h-5.8c-.6,0-1.2-.2-1.5-.7-.3-.4-.5-.9-.3-1.4C8.1,6.6,15.9,1.3,26.4,1.3M26.2.1C14.3.1,6.9,6.6,5.3,14.4c-.3,1.7,1,3.3,2.9,3.3h5.8c1.2,0,2.3-.8,2.7-1.8,2.2-5.5,6.6-6.5,10.2-6.5s1.1,0,1.6,0c6.2.4,9.4,4.3,10.4,8.6.9,4.1-1.6,7.3-4.8,9.8-2.2,1.7-4.8,2.8-7.5,3.3-5.6.8-9.7,3.8-9.7,7.3v14.6c0,1.5-1.3,2.7-2.9,2.7h-2.4c-6.9,0-11.6,1.5-11.6,10.1v32.2c0,1.7,1.5,2.7,3,2.7s1.6-.3,2.2-1l4.5-5.2c.4-.5.7-1.1.7-1.7v-11.9c0-1.5,1.3-2.7,2.9-2.7h2.2c1.6,0,2.9,1.2,2.9,2.7v16.8c0,.6.2,1.1.5,1.6l3.7,5.6c.2.4.7.6,1.2.6s.9-.2,1.1-.6c1.3-1.8,3.3-5.3,3.3-5.3.3-.5.5-1,.5-1.6v-17.1c0-1.5,1.3-2.7,2.9-2.7h1.8c1.6,0,2.9,1.2,2.9,2.7v11.9c0,.6.2,1.2.7,1.7l4.5,5.1c.6.7,1.4,1,2.2,1,1.5,0,3-1.1,3-2.8v-32.1c0-8.7-5-10-12.2-10s-1.2,0-1.9,0h0c-1.6,0-2.9-1.2-2.9-2.7v-10.6c0-1.3,1-2.4,2.3-2.7,11.6-2.1,18.8-11,18.6-20.7-.2-11-10.2-19-24.4-19h0v.1h0Z"/>
</svg>