<?xml version="1.0" encoding="UTF-8"?>
<svg id="Layer_1" data-name="Layer 1" xmlns="http://www.w3.org/2000/svg" xmlns:xlink="http://www.w3.org/1999/xlink" viewBox="0 0 56.12 115.4">
  <defs>
    <style>
      .cls-1 {
        fill: url(#New_Gradient_Swatch_1);
      }
    </style>
    <linearGradient id="New_Gradient_Swatch_1" data-name="New Gradient Swatch 1" x1="3.38" y1="59.26" x2="53.97" y2="59.26" gradientUnits="userSpaceOnUse">
      <stop offset="0" stop-color="#8aafdd"/>
      <stop offset="1" stop-color="#b76aab"/>
    </linearGradient>
  </defs>
  <path class="cls-1" d="M29.61,7.53c13.59,0,23.2,7.41,23.36,18.02.19,9.69-7.14,17.79-17.83,19.72-1.82.33-3.14,1.86-3.14,3.65v10.57c0,2.06,1.76,3.73,3.93,3.73h.1c.63-.02,1.26-.03,1.86-.03,7.46,0,11.25,1.4,11.25,9.04v32.1c0,1.11-1.01,1.77-1.98,1.77-.59,0-1.12-.24-1.5-.68l-4.46-5.1c-.27-.3-.41-.69-.41-1.07v-11.85c0-2.06-1.76-3.73-3.92-3.73h-1.77c-2.16,0-3.92,1.67-3.92,3.73v17.14c0,.35-.12.69-.33.98-.02.03-.04.06-.06.09-.02.03-2.08,3.49-3.31,5.24-.07.1-.18.15-.3.15s-.24-.06-.31-.17l-3.68-5.59s-.02-.03-.03-.04c-.21-.29-.32-.62-.32-.96v-16.84c0-2.06-1.76-3.73-3.92-3.73h-2.23c-2.16,0-3.92,1.67-3.92,3.73v11.85c0,.39-.15.77-.41,1.07l-4.55,5.2c-.38.43-.9.67-1.48.67-.96,0-1.95-.65-1.95-1.74v-32.22c0-7.68,3.71-9.14,10.57-9.14.66,0,1.38.01,2.22.04h.14c2.17,0,3.93-1.67,3.93-3.73v-14.61c0-2.9,3.7-5.55,8.79-6.31,2.84-.43,5.61-1.62,8-3.45,4.38-3.36,6.08-6.89,5.2-10.77-1.25-5.55-5.5-9.07-11.35-9.43-.59-.04-1.12-.06-1.63-.06-5.56,0-9.21,2.34-11.16,7.16-.28.69-1,1.16-1.78,1.17l-5.77.06c-.62,0-1.18-.26-1.55-.71-.32-.39-.45-.88-.35-1.36,1.68-8.23,9.52-13.55,19.96-13.55M29.61,6.53c-11.94,0-19.34,6.48-20.94,14.35-.35,1.69,1.04,3.27,2.88,3.27.01,0,.02,0,.03,0l5.75-.06c1.21-.01,2.27-.74,2.7-1.79,2.24-5.55,6.63-6.53,10.23-6.53.54,0,1.07.02,1.56.05,6.17.38,9.45,4.27,10.44,8.65.93,4.11-1.6,7.27-4.83,9.75-2.17,1.67-4.76,2.84-7.53,3.26-5.56.83-9.65,3.78-9.65,7.3v14.61c0,1.52-1.32,2.73-2.93,2.73-.04,0-.07,0-.11,0-.78-.03-1.53-.04-2.26-.04-6.91,0-11.57,1.46-11.57,10.14v32.22c0,1.67,1.45,2.74,2.95,2.74.81,0,1.62-.31,2.23-1.01l4.55-5.2c.43-.49.66-1.1.66-1.73v-11.85c0-1.51,1.31-2.73,2.92-2.73h2.23c1.61,0,2.92,1.22,2.92,2.73v16.84c0,.55.18,1.1.52,1.55l3.68,5.59c.25.39.69.62,1.15.62s.86-.21,1.12-.57c1.26-1.8,3.35-5.3,3.35-5.3.35-.46.54-1.01.54-1.58v-17.14c0-1.51,1.31-2.73,2.92-2.73h1.77c1.61,0,2.92,1.22,2.92,2.73v11.85c0,.63.23,1.24.66,1.73l4.46,5.1c.62.7,1.44,1.02,2.25,1.02,1.51,0,2.98-1.08,2.98-2.77v-32.1c0-8.68-4.96-10.04-12.25-10.04-.61,0-1.24,0-1.88.03-.03,0-.05,0-.08,0-1.61,0-2.93-1.21-2.93-2.73v-10.57c0-1.29.96-2.42,2.32-2.66,11.56-2.08,18.83-11.03,18.65-20.72-.17-11.02-10.16-19-24.36-19h0Z"/>
</svg>