<?xml version="1.0" encoding="UTF-8"?>
<svg id="Layer_1" data-name="Layer 1" xmlns="http://www.w3.org/2000/svg" viewBox="0 0 116.24 45.7">
  <defs>
    <style>
      .cls-1 {
        stroke: #ee2a7b;
      }

      .cls-1, .cls-2, .cls-3 {
        fill: none;
        stroke-miterlimit: 10;
      }

      .cls-2 {
        stroke: #39b54a;
      }

      .cls-3 {
        stroke: #ed1c24;
      }
    </style>
  </defs>
  <g>
    <path class="cls-1" d="M.5,13.58h1.12v-4.82H.5V1.65h13.8l1.12,4.82h.11l1.12-4.82h14.28v7.11h-1.12v4.82h1.12v7.11h-10.98v-6.27h1.12v-6.94h-.11l-3.3,13.22h-4.93l-3.3-13.22h-.11v6.94h1.12v6.27H.5v-7.11h0Z"/>
    <path class="cls-1" d="M33.87,19.85c0-2.46,1.57-4.03,4-4.03,2.27,0,3.72,1.4,3.86,3.7h.11c.08-.22.14-.64.14-1.04,0-2.18-1.74-3.67-4.34-3.67-1.29,0-2.49.36-3.25.98l-1.43-3.72h-1.04v-7.11h10.16v7.11l1.12,3h.11l1.12-3h-1.32v-7.11h10.58v7.11h-1.04l-2.77,7.31c-1.46,3.81-3.92,5.63-8.54,5.63s-7.5-1.9-7.5-5.15h.03Z"/>
    <path class="cls-1" d="M62.49,19.43h-.11l-.17,1.26h-7.5v-6.75h1.4c1.37.87,3.14,1.4,5.26,1.4.84,0,1.4-.08,1.99-.31v-.11c-6.52-.87-8.96-2.74-8.96-5.71,0-2.77,2.16-4.7,5.57-4.7,1.85,0,3.36.56,4.59,1.71h.11l.17-1.26h7.5v6.19h-1.4c-1.26-.7-3.05-1.12-4.87-1.12-.81,0-1.32.08-1.85.25v.11c6.89,1.4,8.99,2.6,8.99,5.68s-2.18,5.07-5.91,5.07c-1.85,0-3.22-.48-4.82-1.71h.01Z"/>
    <path class="cls-1" d="M74.45,16.32v-4.26h-1.04v-6.27c1.65-.28,2.58-1.51,3.14-4.14h6.38v3.3h2.91v7.11h-2.91v.81c0,.73.39.95,1.32.95.31,0,.76-.03,1.32-.17l.42,6.86c-1.23.39-2.94.62-4.93.62-4.82,0-6.61-1.29-6.61-4.82h0Z"/>
    <path class="cls-1" d="M86.93,13.58h1.04v-1.51h-1.04v-3.7c1.04.92,2.97,1.51,5.12,1.51,1.65,0,3.14-.34,4.48-1.04v4.73h1.04v7.11h-10.64v-7.11h0ZM87.19,4.73c0-2.58,1.88-4.23,4.84-4.23s4.84,1.65,4.84,4.23-1.88,4.23-4.84,4.23-4.84-1.65-4.84-4.23Z"/>
    <path class="cls-1" d="M98.27,12.74c0-5.35,3.44-8.23,9.8-8.23,4.93,0,7.53,1.74,7.53,4.98,0,2.49-1.54,3.95-4.14,3.95s-3.92-1.32-3.92-3.47c0-.31.03-.53.06-.76l-.11-.03c-.28.56-.42,1.23-.42,1.96,0,2.38,1.48,3.61,4.48,3.61,1.2,0,2.38-.2,3.42-.62l.73,5.88c-1.6.73-4,1.12-6.64,1.12-7.11,0-10.78-2.86-10.78-8.4h0Z"/>
  </g>
  <g>
    <path class="cls-1" d="M.5,37.63h1.12v-4.82H.5v-7.11h14.2c5.4,0,7.81,1.65,7.81,5.38,0,1.96-.64,3.25-2.07,4v.11c1.6.73,2.35,2.04,2.35,4.17,0,3.75-2.35,5.38-7.81,5.38H.5s0-7.11,0-7.11ZM11.73,33.52c.95,0,1.34-.31,1.34-1.06s-.39-1.06-1.34-1.06h-1.09v2.13h1.09ZM11.87,39.06c.95,0,1.34-.31,1.34-1.06s-.39-1.06-1.34-1.06h-1.23v2.13h1.23Z"/>
    <path class="cls-1" d="M23.6,37.63h1.04v-1.51h-1.04v-3.7c1.04.92,2.97,1.51,5.12,1.51,1.65,0,3.14-.34,4.48-1.04v4.73h1.04v7.11h-10.64v-7.11h0ZM23.85,28.78c0-2.58,1.88-4.23,4.84-4.23s4.84,1.65,4.84,4.23-1.88,4.23-4.84,4.23-4.84-1.65-4.84-4.23Z"/>
    <path class="cls-1" d="M35.67,40.38v-4.26h-1.04v-6.27c1.65-.28,2.58-1.51,3.14-4.14h6.38v3.3h2.91v7.11h-2.91v.81c0,.73.39.95,1.32.95.31,0,.76-.03,1.32-.17l.42,6.86c-1.23.39-2.94.62-4.93.62-4.82,0-6.61-1.29-6.61-4.82h0Z"/>
    <path class="cls-1" d="M47.82,36.88c0-5.4,3.5-8.32,9.91-8.32,5.88,0,8.99,2.44,8.99,6.92,0,.76-.08,1.54-.2,2.1h-9.86c.11,1.04.92,1.34,3.3,1.34,2.04,0,3.92-.22,5.6-.64l.67,5.68c-1.93.81-4.45,1.23-7.34,1.23-7.39,0-11.09-2.77-11.09-8.32h.02ZM58.65,35.59v-.25c0-1.26-.31-1.82-1.01-1.82s-1.01.56-1.01,1.82v.25h2.02Z"/>
    <path class="cls-1" d="M75.28,43.49h-.11l-.17,1.26h-7.5v-6.75h1.4c1.37.87,3.14,1.4,5.26,1.4.84,0,1.4-.08,1.99-.31v-.11c-6.52-.87-8.96-2.74-8.96-5.71,0-2.77,2.16-4.7,5.57-4.7,1.85,0,3.36.56,4.59,1.71h.11l.17-1.26h7.5v6.19h-1.4c-1.26-.7-3.05-1.12-4.87-1.12-.81,0-1.32.08-1.85.25v.11c6.89,1.4,8.99,2.6,8.99,5.68s-2.18,5.07-5.91,5.07c-1.85,0-3.22-.48-4.82-1.71h0Z"/>
  </g>
  <ellipse class="cls-3" cx="99.67" cy="36.36" rx="8.71" ry="8.84"/>
  <polygon class="cls-2" points="107.21 35.34 103.4 33.31 100.32 36.36 101.05 32.06 97.24 30.03 101.5 29.4 102.22 25.1 104.13 29.01 108.38 28.39 105.3 31.43 107.21 35.34"/>
</svg>