<?xml version="1.0" encoding="UTF-8"?>
<svg id="Layer_1" data-name="Layer 1" xmlns="http://www.w3.org/2000/svg" xmlns:xlink="http://www.w3.org/1999/xlink" viewBox="0 0 166.36 105.46">
  <defs>
    <style>
      .cls-1 {
        fill: url(#linear-gradient);
      }
    </style>
    <linearGradient id="linear-gradient" x1="0" y1="190.45" x2="166.36" y2="190.45" gradientTransform="translate(0 -137.72)" gradientUnits="userSpaceOnUse">
      <stop offset="0" stop-color="#374ea1"/>
      <stop offset="1" stop-color="#b23092"/>
    </linearGradient>
  </defs>
  <path class="cls-1" d="M51.15,70.75h1.12v-4.82h-1.12v-7.11h13.8l1.12,4.82h.11l1.12-4.82h14.28v7.11h-1.12v4.82h1.12v7.11h-10.98v-6.27h1.12v-6.94h-.11l-3.3,13.22h-4.93l-3.3-13.22h-.11v6.94h1.12v6.27h-9.94s0-7.11,0-7.11ZM84.53,77.02c0-2.46,1.57-4.03,4-4.03,2.27,0,3.72,1.4,3.86,3.7h.11c.08-.22.14-.64.14-1.04,0-2.18-1.74-3.67-4.34-3.67-1.29,0-2.49.36-3.25.98l-1.43-3.72h-1.04v-7.11h10.16v7.11l1.12,3h.11l1.12-3h-1.32v-7.11h10.58v7.11h-1.04l-2.77,7.31c-1.46,3.81-3.92,5.63-8.54,5.63s-7.5-1.9-7.5-5.15h.03,0ZM113.14,76.6h-.11l-.17,1.26h-7.5v-6.75h1.4c1.37.87,3.14,1.4,5.26,1.4.84,0,1.4-.08,1.99-.31v-.11c-6.52-.87-8.96-2.74-8.96-5.71,0-2.77,2.16-4.7,5.57-4.7,1.85,0,3.36.56,4.59,1.71h.11l.17-1.26h7.5v6.19h-1.4c-1.26-.7-3.05-1.12-4.87-1.12-.81,0-1.32.08-1.85.25v.11c6.89,1.4,8.99,2.6,8.99,5.68s-2.18,5.07-5.91,5.07c-1.85,0-3.22-.48-4.82-1.71,0,0,.01,0,.01,0ZM125.1,73.49v-4.26h-1.04v-6.27c1.65-.28,2.58-1.51,3.14-4.14h6.38v3.3h2.91v7.11h-2.91v.81c0,.73.39.95,1.32.95.31,0,.76-.03,1.32-.17l.42,6.86c-1.23.39-2.94.62-4.93.62-4.82,0-6.61-1.29-6.61-4.82h0ZM137.59,70.75h1.04v-1.51h-1.04v-3.7c1.04.92,2.97,1.51,5.12,1.51,1.65,0,3.14-.34,4.48-1.04v4.73h1.04v7.11h-10.64v-7.11h0ZM137.84,61.9c0-2.58,1.88-4.23,4.84-4.23s4.84,1.65,4.84,4.23-1.88,4.23-4.84,4.23-4.84-1.65-4.84-4.23ZM148.93,69.91c0-5.35,3.44-8.23,9.8-8.23,4.93,0,7.53,1.74,7.53,4.98,0,2.49-1.54,3.95-4.14,3.95s-3.92-1.32-3.92-3.47c0-.31.03-.53.06-.76l-.11-.03c-.28.56-.42,1.23-.42,1.96,0,2.38,1.48,3.61,4.48,3.61,1.2,0,2.38-.2,3.42-.62l.73,5.88c-1.6.73-4,1.12-6.64,1.12-7.11,0-10.78-2.86-10.78-8.4h0ZM71.09,92.37v-.12c1.43-.75,2.07-2.04,2.07-4,0-3.72-2.41-5.38-7.81-5.38h-14.2v7.12h1.12v4.81h-1.12v7.11h14.48c5.46,0,7.81-1.62,7.81-5.37,0-2.13-.76-3.45-2.35-4.17ZM61.29,88.56h1.09c.95,0,1.34.31,1.34,1.06s-.39,1.06-1.34,1.06h-1.09s0-2.12,0-2.12ZM62.52,96.23h-1.23v-2.13h1.23c.95,0,1.34.31,1.34,1.06s-.39,1.07-1.34,1.07ZM74.25,94.8h0s0,0,0,0h1.04v-1.51h-1.04v-3.7c1.04.92,2.97,1.51,5.12,1.51,1.65,0,3.14-.34,4.48-1.04v4.73h1.04v7.11h-10.64v-7.11s0,.01,0,0ZM74.5,85.95c0-2.58,1.88-4.23,4.84-4.23s4.84,1.65,4.84,4.23-1.88,4.23-4.84,4.23-4.84-1.65-4.84-4.23ZM86.32,97.54v-4.26h-1.04v-6.27c1.65-.28,2.58-1.51,3.14-4.14h6.38v3.3h2.91v7.11h-2.91v.81c0,.73.39.95,1.32.95.31,0,.76-.03,1.32-.17l.42,6.86c-1.23.39-2.94.62-4.93.62-4.82,0-6.61-1.29-6.61-4.82h0ZM117.37,92.64c0-4.48-3.11-6.91-8.99-6.91-6.41,0-9.91,2.91-9.91,8.31s3.7,8.32,11.09,8.32c2.88,0,5.4-.42,7.34-1.23l-.68-5.68c-1.68.42-3.55.64-5.6.64-2.38,0-3.19-.31-3.3-1.35h9.86c.11-.56.19-1.34.19-2.1h0ZM109.31,92.76h-2.02v-.26c0-1.26.31-1.82,1.01-1.82s1.01.56,1.01,1.82v.26h0ZM121.6,98.53l4.34,2.12h-.11l-.17,1.26h-7.5v-6.75h1.4c1.37.87,3.14,1.4,5.26,1.4.84,0,1.4-.08,1.99-.31v-.11c-6.52-.87-8.96-2.74-8.96-5.71,0-2.77,2.16-4.7,5.57-4.7,1.85,0,3.36.56,4.59,1.71h.11l.17-1.26h7.5v6.19h-1.4c-1.26-.7-3.05-1.12-4.87-1.12-.81,0-1.32.08-1.85.25v.11c6.89,1.4,8.99,2.6,8.99,5.68s-2.18,5.07-5.91,5.07c-1.85,0-3.22-.48-4.82-1.71l-2.94-1.44M154.89,86h-.02c-.08-.06-.17-.12-.26-.16l.17.34.31-.05c-.06-.04-.13-.09-.2-.13h0ZM156.99,87.84l-.79.84,1.75,3.79.14.27-.28-.14-3.72-1.92-2.97,3-.47.47.11-.66.68-4.13c-.82-.44-4.01-2.12-4.34-2.3.35-.05,3.91-.56,4.85-.7l.26-1.46c-.61-.14-1.24-.21-1.89-.21-4.81,0-8.71,3.95-8.71,8.83s3.9,8.84,8.71,8.84,8.72-3.96,8.72-8.84c0-2.22-.7-4.14-2.04-5.68h-.01ZM156.87,87.7l.02.02-.93.88M157.65,92.28l-1.69-3.68M157.65,92.28l-1.69-3.68M155.96,88.6l.89-.92,1.92-1.98M158.77,85.7l-1.92,1.98-.89.92.93-.88-.02-.02M154.89,86h-.02c-.08-.06-.17-.12-.26-.16l.17.34.31-.05c-.06-.04-.13-.09-.2-.13h0ZM157.65,92.28l-1.69-3.68M156.85,87.68l1.92-1.98-3.49.56-.48.08c-.15.03-.1.04-.17-.09l-.28-.56-1.37-2.74-.34,2.06-.26,1.6-.03.16-.17.03-3.52.53,3.15,1.69.15.08-.03.16-.64,3.65,2.66-2.56s.12-.06.18-.02l3.52,1.95-1.69-3.68.89-.92h0ZM32.61,55.68c-1.65.04-3.01-1.19-3.01-2.73v-10.57c0-1.29.96-2.42,2.32-2.66,11.56-2.08,18.83-11.03,18.65-20.72C50.4,7.98,40.41,0,26.21,0,14.27,0,6.87,6.48,5.27,14.35c-.35,1.7,1.05,3.29,2.91,3.27l5.75-.06c1.21-.01,2.27-.74,2.7-1.79,2.58-6.38,7.99-6.72,11.8-6.48,6.17.38,9.45,4.27,10.44,8.65.93,4.11-1.6,7.27-4.83,9.75-2.17,1.67-4.76,2.84-7.53,3.26-5.56.83-9.65,3.78-9.65,7.3v14.61c0,1.55-1.38,2.78-3.04,2.73-8.14-.27-13.82.5-13.82,10.1v32.22c0,2.57,3.44,3.72,5.18,1.73l4.55-5.2c.43-.49.66-1.1.66-1.73v-11.85c0-1.51,1.31-2.73,2.92-2.73h2.23c1.61,0,2.92,1.22,2.92,2.73v16.84c0,.55.18,1.1.52,1.55l3.68,5.59c.25.39.69.62,1.15.62h0c.45,0,.86-.21,1.12-.57,1.26-1.8,3.35-5.3,3.35-5.3.35-.46.54-1.01.54-1.58v-17.14c0-1.51,1.31-2.73,2.92-2.73h1.77c1.61,0,2.92,1.22,2.92,2.73v11.85c0,.63.23,1.24.66,1.73l4.46,5.1c1.76,2.01,5.23.84,5.23-1.75v-32.1c0-9.41-5.83-10.22-14.13-10.02h-.04,0Z"/>
</svg>